<svg viewBox="0 0 326 416" fill="none" xmlns="http://www.w3.org/2000/svg">
<path d="M41.0092 168.292C21.7639 168 7.54913 162.419 7.54913 162.419C7.54913 162.419 10.3038 156.841 16.0348 149.481C18.1061 150.098 20.1036 150.584 21.3478 150.589L17.2985 147.888C20.9537 143.377 25.6708 138.334 31.4844 133.547C34.8921 135.849 40.0696 138.123 43.3893 139.345C43.3893 139.345 38.9047 135.582 34.6454 131.057C42.6445 125.036 52.4901 119.683 64.2875 116.7C68.0241 120.13 75.2051 126.994 77.6435 128.881C79.9411 130.661 74.046 122.198 70.3867 115.419C82.8988 113.269 97.3935 113.795 113.974 118.744C115.553 119.215 117.099 119.329 118.526 119.082C122.709 118.355 129.491 117.591 134.778 118.982L135.603 123.119C130.99 121.725 124.576 122.385 120.421 123.075C119.396 123.243 118.575 123.871 118.012 124.808L118.005 124.822C99.2941 155.783 73.5677 165.865 51.6487 167.891L51.8304 147.659C47.2209 154.532 45.8685 160.874 41.0092 168.292Z" fill="#F5AB3E"/>
<path d="M10.9915 160.391C11.5659 160.279 12.0806 160.028 12.6163 159.83L14.2024 159.182L17.3507 157.835L23.6429 155.132C27.8239 153.302 32.0094 151.48 36.2164 149.705C44.6259 146.148 53.0437 142.614 61.5633 139.299C65.8134 137.619 70.0912 136.006 74.3993 134.457C78.6942 132.883 83.0433 131.424 87.4089 130.011C91.7789 128.606 96.2048 127.327 100.703 126.24C105.185 125.108 109.764 124.22 114.479 123.721C104.858 124.113 95.8053 126.354 86.9247 128.857C78.0477 131.402 69.4093 134.507 60.8761 137.824C52.36 141.18 43.9508 144.758 35.6668 148.586C31.5246 150.503 27.3984 152.444 23.2894 154.424L17.1595 157.453L14.092 158.967L12.5608 159.725C12.0423 159.962 11.5453 160.247 10.9881 160.398L10.9915 160.391Z" fill="#AA8573"/>
<path d="M21.2857 143.255L22.6494 144.248L24.0156 145.218C24.9243 145.868 25.8405 146.497 26.7533 147.134C27.6702 147.758 28.5836 148.389 29.5052 148.995C30.424 149.602 31.3478 150.211 32.2794 150.774C31.8382 150.402 31.3867 150.051 30.9414 149.692L29.5872 148.662C28.6844 147.982 27.77 147.335 26.8544 146.7C25.9375 146.076 25.0149 145.455 24.0896 144.884C23.1621 144.308 22.2311 143.74 21.2863 143.249L21.2857 143.255Z" fill="#AA8573"/>
<path d="M28.5002 136.111C29.7462 137.005 31.0022 137.857 32.2595 138.697C33.5162 139.543 34.7794 140.354 36.0398 141.166C37.3043 141.965 38.571 142.768 39.842 143.531L41.7486 144.676C42.386 145.041 43.0244 145.421 43.6653 145.778C43.0429 145.325 42.4146 144.902 41.7909 144.461L39.9059 143.192C38.6493 142.346 37.3861 141.535 36.1228 140.725C34.8583 139.926 33.5939 139.127 32.3206 138.359C31.0501 137.59 29.7791 136.827 28.4945 136.114L28.5002 136.111Z" fill="#AA8573"/>
<path d="M45.8098 123.899C47.152 125.285 48.5541 126.563 49.9622 127.811C51.3725 129.064 52.806 130.25 54.25 131.415C55.6958 132.563 57.1514 133.695 58.6252 134.759C59.3586 135.298 60.1025 135.815 60.8372 136.342C61.5822 136.848 62.3245 137.356 63.0692 137.84L58.7217 134.439C57.2746 133.303 55.8304 132.165 54.3881 131.01C52.9479 129.859 51.5153 128.688 50.0834 127.511C49.3663 126.921 48.6549 126.327 47.9425 125.718C47.2283 125.126 46.5194 124.51 45.8127 123.898L45.8098 123.899Z" fill="#AA8573"/>
<path d="M49.2351 122.347C50.5773 123.732 51.9794 125.01 53.3875 126.259C54.7978 127.511 56.2313 128.698 57.6753 129.863C59.1211 131.011 60.5767 132.143 62.0505 133.206C62.7839 133.745 63.5278 134.262 64.2625 134.79C65.0075 135.296 65.7498 135.803 66.4945 136.288L62.147 132.887C60.6999 131.75 59.2557 130.612 57.8134 129.457C56.3732 128.306 54.9406 127.135 53.5087 125.958C52.7916 125.368 52.0802 124.774 51.3678 124.165C50.6536 123.573 49.9446 122.957 49.2379 122.345L49.2351 122.347Z" fill="#AA8573"/>
<path d="M79.7332 114.357C80.6183 115.663 81.5697 116.901 82.5399 118.113C83.5096 119.331 84.5108 120.506 85.5338 121.653C86.5602 122.792 87.5993 123.915 88.6745 124.975C89.2101 125.511 89.7504 126.029 90.2908 126.547C90.8374 127.056 91.3881 127.553 91.9479 128.039C90.9089 126.917 89.8604 125.832 88.8321 124.709C87.8004 123.594 86.7749 122.47 85.7592 121.33C84.7372 120.198 83.737 119.039 82.7282 117.885C81.7229 116.723 80.7325 115.549 79.7404 114.364L79.7332 114.357Z" fill="#AA8573"/>
<path d="M95.0834 114.821C95.8347 115.833 96.6449 116.771 97.4712 117.684C98.2947 118.599 99.1498 119.47 100.016 120.314C100.889 121.144 101.765 121.966 102.673 122.724C103.123 123.107 103.579 123.472 104.034 123.842C104.495 124.198 104.955 124.549 105.422 124.881L102.799 122.426C101.928 121.607 101.062 120.784 100.2 119.948C99.3353 119.12 98.4835 118.268 97.6288 117.418C97.2012 116.996 96.7776 116.561 96.3541 116.126C95.927 115.698 95.5069 115.256 95.084 114.815L95.0834 114.821Z" fill="#AA8573"/>
<path d="M39.1182 147.749C38.2989 149.266 37.5402 150.843 36.8033 152.44C36.0663 154.037 35.3759 155.674 34.6878 157.315C34.0338 158.986 33.3775 160.653 32.7897 162.381C32.2047 164.107 31.651 165.864 31.2068 167.697C31.5217 166.849 31.8092 165.984 32.1359 165.151C32.4379 164.299 32.7674 163.465 33.089 162.63C33.7374 160.961 34.3885 159.292 35.0739 157.652C35.7272 155.987 36.4249 154.357 37.0979 152.708L39.1226 147.757L39.1182 147.749Z" fill="#AA8573"/>
<path d="M70.0971 135.193C68.8722 137.36 67.8761 139.76 66.9627 142.212C66.0537 144.672 65.2769 147.245 64.5603 149.856C64.2404 151.189 63.8908 152.5 63.6108 153.861L63.1748 155.888L62.7961 157.955C62.5312 159.323 62.349 160.745 62.1297 162.137C61.943 163.55 61.7861 164.984 61.6297 166.413C62.0914 163.637 62.5451 160.86 63.1067 158.15C63.638 155.423 64.2743 152.764 64.9599 150.143C65.6383 147.515 66.4182 144.962 67.2598 142.456C67.6756 141.201 68.1261 139.97 68.5985 138.76C69.0637 137.543 69.5585 136.347 70.0971 135.193Z" fill="#AA8573"/>
<path d="M85.3303 129.998C84.4639 132.387 83.6983 134.858 82.9648 137.354C82.2363 139.853 81.5723 142.398 80.9432 144.968C80.3539 147.564 79.7741 150.172 79.3224 152.857C78.8758 155.544 78.4988 158.28 78.3254 161.112L78.6005 159.063C78.6838 158.375 78.8148 157.716 78.9183 157.039C79.019 156.364 79.1326 155.692 79.2608 155.034C79.3868 154.372 79.4954 153.698 79.6337 153.046C80.1499 150.407 80.7234 147.808 81.3446 145.237C81.9384 142.649 82.6068 140.112 83.2701 137.573C83.5996 136.299 83.9413 135.034 84.2904 133.777L85.3332 129.996L85.3303 129.998Z" fill="#AA8573"/>
<path d="M98.7224 126.287C98.1648 128.154 97.7116 130.094 97.2982 132.061C96.8849 134.029 96.5541 136.049 96.2465 138.078C95.9685 140.129 95.7412 142.206 95.5926 144.323C95.4542 146.445 95.4018 148.612 95.4739 150.815C95.5417 149.755 95.5583 148.674 95.6565 147.63C95.7164 146.568 95.8145 145.524 95.9099 144.482C96.1236 142.406 96.3475 140.335 96.6545 138.312C96.929 136.268 97.2664 134.261 97.6089 132.256C97.7801 131.254 97.9615 130.256 98.1502 129.266C98.3265 128.267 98.5281 127.28 98.7195 126.289L98.7224 126.287Z" fill="#AA8573"/>
<path d="M102.205 125.508C101.801 127.149 101.484 128.845 101.197 130.558C100.913 132.274 100.692 134.027 100.488 135.792C100.323 137.574 100.174 139.369 100.111 141.199C100.059 143.038 100.064 144.902 100.21 146.804C100.238 145.888 100.229 144.959 100.285 144.055C100.305 143.139 100.374 142.244 100.427 141.342C100.554 139.548 100.701 137.765 100.899 136.003C101.069 134.229 101.294 132.485 101.51 130.735C101.617 129.858 101.73 128.988 101.852 128.119L102.203 125.504L102.205 125.508Z" fill="#AA8573"/>
<path d="M121.682 34.968C127.137 46.4024 128.143 58.1074 128.143 58.1074C128.143 58.1074 124.197 59.8851 118.378 61.0042C118.122 59.4173 117.812 57.9539 117.452 57.2229L117.113 61.2323C113.504 61.8351 109.287 62.1392 104.893 61.6468C105.195 58.2557 104.964 53.8454 104.683 51.1615C104.683 51.1615 103.873 56.0704 102.568 61.311C96.8411 60.2897 90.9514 57.783 85.8269 52.6945C86.6676 48.4252 88.4373 40.0548 88.7883 37.482C89.1198 35.0569 86.0743 43.6464 83.3244 49.9053C78.4604 43.8927 74.5246 35.0949 72.4708 22.39C72.2754 21.1801 71.8882 20.207 71.3324 19.5223C69.7015 17.517 67.2915 14.0142 66.5307 10.0767L68.6202 7.08125C69.1816 10.6263 71.4261 13.9771 73.0283 15.9881C73.4221 16.4856 74.0157 16.5841 74.7075 16.3444L74.7177 16.3397C97.6187 8.47544 110.809 17.3983 118.35 28.9883L106.901 41.173C112.118 39.6939 116.085 36.6322 121.682 34.968Z" fill="#F5AB3E"/>
<path d="M264.782 147.548C265.887 151.53 267.847 155.607 270.263 161.1C271.967 164.969 272.751 169.42 273.11 172.461C273.284 173.928 275.015 174.62 276.147 173.671C278.209 171.944 280.695 170.013 282.226 169.096C287.936 165.683 294.242 163.372 300.782 162.151C307.716 160.853 313.63 158.825 317.358 157.357C318.518 156.899 319.614 158.165 318.988 159.244C317.384 162.009 315.486 166.275 314.487 172.113C312.211 185.441 303.868 196.039 300.61 199.895C300.011 200.603 300.348 201.698 301.244 201.946C305.469 203.114 315.871 206.344 325.27 212.098C325.596 212.298 325.491 212.792 325.114 212.84C321.628 213.29 311.261 215.271 308.457 223.128C308.413 223.252 308.286 223.326 308.156 223.295C306.064 222.79 290.151 219.532 297.425 238.854C297.611 239.348 297.103 239.82 296.624 239.596C295.34 238.992 293.239 238.036 290.785 237.054C283.85 234.274 277.95 229.441 273.846 223.2C270.841 218.627 266.651 214.385 261.646 214.943C260.013 216.747 256.983 220.421 254.603 225.194C251.099 232.222 248.29 233.734 248.174 233.794L247.795 233.07C247.823 233.055 250.511 231.567 253.871 224.831C256.329 219.903 259.471 216.118 261.12 214.306C261.234 213.909 261.429 213.433 261.436 213.152C261.529 209.421 259.029 206.14 255.441 205.111C249.812 203.494 243.635 200.628 242.299 196.596C241.503 194.19 238.574 187.995 236.992 184.706C236.662 184.023 237.338 183.281 238.048 183.556C241.444 184.869 244.844 185.002 246.617 184.955C247.205 184.94 247.59 184.345 247.381 183.793C244.738 176.862 250.85 168.842 250.85 168.842C257.296 160.275 261.45 151.539 263.221 147.452C263.53 146.738 264.571 146.806 264.781 147.556L264.782 147.548Z" fill="#F15A24"/>
<path d="M237.387 326.799L242.88 329.197L243.253 328.347L238.557 326.299C251.985 320.59 260.198 319.114 260.294 319.1L259.978 317.273C259.574 317.342 251.285 318.827 237.528 324.721L239.861 319.536L239.014 319.157L236.263 325.269C234.338 326.11 232.314 327.035 230.193 328.052C228.299 328.961 226.281 329.973 224.156 331.083L224.668 328.283L223.755 328.115L223.113 331.629C219.173 333.717 214.878 336.153 210.28 338.989L210.403 335.156L209.476 335.125L209.332 339.579C205.591 341.909 201.663 344.499 197.571 347.375L197.621 342.537L196.694 342.527L196.637 348.032C193.043 350.578 189.329 353.349 185.514 356.347L184.855 352.139L183.937 352.284L184.679 357.007C181.908 359.202 179.081 361.53 176.215 363.978L174.907 361.835L174.115 362.317L175.503 364.585C170.218 369.127 164.787 374.107 159.26 379.568L160.563 380.887C166.003 375.512 171.344 370.613 176.542 366.132L179.506 370.331L180.264 369.795L177.25 365.526C180.189 363.01 183.084 360.625 185.92 358.382L190.215 361.546L190.764 360.8L186.677 357.791C190.555 354.743 194.331 351.93 197.977 349.352L201.56 351.967L202.107 351.216L198.782 348.786C202.898 345.899 206.848 343.3 210.597 340.971L215.503 343.868L215.975 343.068L211.489 340.419C216.373 337.415 220.906 334.866 225.031 332.712L231.623 337.654L232.178 336.912L225.943 332.239C227.676 331.342 229.336 330.519 230.908 329.761C233.175 328.672 235.338 327.688 237.387 326.799Z" fill="#BA7751"/>
<path d="M230.578 319.593C229.115 326.591 226.186 330 223.573 329.453C220.956 328.907 219.642 324.608 221.108 317.612C222.571 310.613 226.259 303.571 228.875 304.12C231.49 304.67 232.042 312.6 230.581 319.595L230.578 319.593Z" fill="#F8AA13"/>
<path d="M214.961 324.588C214.956 332.41 212.581 336.721 209.656 336.718C206.731 336.714 204.362 332.405 204.368 324.58C204.373 316.758 206.752 308.385 209.677 308.388C212.602 308.392 214.967 316.763 214.961 324.588Z" fill="#F8AA13"/>
<path d="M201.252 331.556C201.964 339.892 199.829 344.699 196.712 344.965C193.594 345.231 190.676 340.856 189.965 332.519C189.253 324.183 191.016 315.047 194.134 314.781C197.252 314.514 200.541 323.219 201.249 331.554L201.252 331.556Z" fill="#F8AA13"/>
<path d="M187.068 339.816C189.067 348.193 187.631 353.412 184.498 354.161C181.366 354.909 177.725 350.898 175.724 342.525C173.724 334.148 174.122 324.581 177.255 323.832C180.387 323.083 185.066 331.442 187.068 339.816Z" fill="#F8AA13"/>
<path d="M171.955 348.287C176.686 355.881 176.991 361.5 174.151 363.271C171.31 365.042 166.402 362.289 161.671 354.694C156.94 347.1 154.179 337.536 157.02 335.766C159.86 333.995 167.224 340.692 171.958 348.288L171.955 348.287Z" fill="#F8AA13"/>
<path d="M247.723 314.267C244.052 320.399 240.169 322.666 237.875 321.291C235.584 319.917 235.747 315.424 239.42 309.294C243.091 303.162 248.883 297.712 251.174 299.086C253.465 300.459 251.394 308.135 247.723 314.267Z" fill="#F8AA13"/>
<path d="M239.376 335.011C232.847 332.105 228.369 332.48 227.281 334.923C226.194 337.363 228.91 340.945 235.439 343.851C241.968 346.757 249.837 347.888 250.924 345.448C252.01 343.009 245.902 337.915 239.373 335.009L239.376 335.011Z" fill="#F8AA13"/>
<path d="M226.277 343.654C219.339 340.037 214.422 340.148 213.069 342.743C211.716 345.338 214.441 349.433 221.38 353.048C228.318 356.665 236.837 358.431 238.188 355.839C239.541 353.244 233.212 347.27 226.277 343.654Z" fill="#F8AA13"/>
<path d="M213.647 352.562C206.436 348.321 201.179 348.169 199.592 350.863C198.005 353.558 200.694 358.081 207.903 362.325C215.114 366.566 224.117 368.922 225.7 366.226C227.287 363.531 220.858 356.803 213.647 352.562Z" fill="#F8AA13"/>
<path d="M203.203 363.585C196.381 358.333 191.028 357.504 189.064 360.054C187.099 362.605 189.265 367.569 196.087 372.822C202.909 378.074 211.803 381.631 213.767 379.08C215.731 376.53 210.025 368.838 203.2 363.583L203.203 363.585Z" fill="#F8AA13"/>
<path d="M191.394 375.289C186.005 368.147 180.867 365.846 178.198 367.863C175.528 369.881 176.334 375.449 181.723 382.592C187.112 389.734 195.049 395.745 197.718 393.727C200.388 391.71 196.784 382.432 191.393 375.292L191.394 375.289Z" fill="#F8AA13"/>
<path d="M252.493 324.954C245.431 323.861 241.206 325.402 240.8 328.044C240.39 330.684 243.954 333.429 251.015 334.517C258.078 335.61 265.97 334.636 266.379 331.996C266.789 329.356 259.558 326.044 252.493 324.954Z" fill="#F8AA13"/>
<path d="M264.816 322.02C257.86 323.659 253.528 322.455 252.914 319.856C252.302 317.254 255.637 314.243 262.593 312.604C269.549 310.965 277.492 311.315 278.104 313.917C278.716 316.519 271.77 320.384 264.814 322.023L264.816 322.02Z" fill="#F8AA13"/>
</svg>
