<svg viewBox="0 0 446 468" fill="none" xmlns="http://www.w3.org/2000/svg">
<path d="M351.463 88.166L345.888 86.2632L345.592 87.1261L350.358 88.7509C337.669 95.4332 329.744 97.5456 329.651 97.5673L330.109 99.3315C330.499 99.2303 338.497 97.1027 351.494 90.2132L349.63 95.4816L350.49 95.7841L352.689 89.5735C354.506 88.5932 356.414 87.5234 358.408 86.3547C360.19 85.3102 362.084 84.1555 364.076 82.8955L363.801 85.6796L364.709 85.7703L365.053 82.276C368.742 79.9111 372.751 77.1763 377.025 74.0252L377.216 77.79L378.126 77.7451L377.905 73.3707C381.381 70.7847 385.018 67.9287 388.793 64.7793L389.137 69.5225L390.046 69.4572L389.654 64.0604C392.968 61.2747 396.381 58.2593 399.874 55.0126L400.861 59.0808L401.749 58.8644L400.639 54.2981C403.174 51.9229 405.755 49.4132 408.363 46.7833L409.818 48.7758L410.555 48.2397L409.012 46.1302C413.819 41.2524 418.734 35.9335 423.705 30.1362L422.321 28.9499C417.43 34.6563 412.596 39.8891 407.868 44.6996L404.624 40.8277L403.925 41.4137L407.223 45.351C404.549 48.0543 401.907 50.6247 399.311 53.0527L394.848 50.3016L394.371 51.077L398.618 53.6922C395.067 56.9932 391.596 60.0551 388.234 62.8761L384.513 60.6056L384.038 61.3857L387.492 63.4957C383.695 66.658 380.037 69.5238 376.554 72.1098L371.513 69.6704L371.115 70.4921L375.725 72.7227C371.184 76.0617 366.951 78.927 363.087 81.3715L356.228 77.0657L355.744 77.838L362.231 81.909C360.607 82.9278 359.047 83.8686 357.569 84.7389C355.437 85.9897 353.398 87.129 351.463 88.166Z" fill="#BA7751"/>
<path d="M358.718 94.672C359.582 87.6984 362.175 84.1214 364.778 84.4454C367.386 84.7679 369.022 88.8718 368.154 95.8438C367.289 102.817 364.249 110.015 361.642 109.689C359.036 109.363 357.851 101.641 358.714 94.6704L358.718 94.672Z" fill="#F8AA13"/>
<path d="M373.609 88.5112C372.979 80.8493 374.955 76.4338 377.821 76.1996C380.686 75.9654 383.357 79.9945 383.986 87.6596C384.616 95.3215 382.966 103.716 380.1 103.95C377.234 104.184 374.238 96.1763 373.609 88.5112Z" fill="#F8AA13"/>
<path d="M386.471 80.5737C385.097 72.4658 386.798 67.5842 389.83 67.0704C392.863 66.5567 396.076 70.6055 397.449 78.7133C398.823 86.8212 397.838 95.9132 394.805 96.427C391.773 96.9407 387.845 88.6815 386.474 80.5752L386.471 80.5737Z" fill="#F8AA13"/>
<path d="M399.695 71.3309C397.056 63.2883 398.039 58.0597 401.047 57.0718C404.054 56.0839 407.946 59.7173 410.586 67.7567C413.225 75.7993 413.611 85.203 410.604 86.1909C407.597 87.1787 402.335 79.3703 399.695 71.3309Z" fill="#F8AA13"/>
<path d="M413.81 61.807C408.559 54.7519 407.804 49.2731 410.442 47.308C413.081 45.3429 418.112 47.6406 423.363 54.6957C428.613 61.7508 432.094 70.8938 429.455 72.8589C426.817 74.824 419.06 68.8622 413.806 61.8055L413.81 61.807Z" fill="#F8AA13"/>
<path d="M342.357 101.28C345.454 94.9762 349.074 92.4404 351.433 93.6015C353.788 94.7611 353.994 99.1751 350.893 105.478C347.795 111.782 342.565 117.591 340.209 116.431C337.853 115.271 339.259 107.585 342.357 101.28Z" fill="#F8AA13"/>
<path d="M348.848 80.284C355.48 82.6003 359.835 81.8692 360.703 79.388C361.569 76.9099 358.618 73.6222 351.987 71.3059C345.356 68.9896 337.556 68.52 336.69 70.9981C335.824 73.4761 342.22 77.9692 348.851 80.2855L348.848 80.284Z" fill="#F8AA13"/>
<path d="M360.977 70.7543C368.066 73.7346 372.874 73.2263 373.989 70.5747C375.103 67.9232 372.102 64.1333 365.011 61.1562C357.922 58.1759 349.434 57.1383 348.321 59.7867C347.206 62.4382 353.891 67.7755 360.977 70.7543Z" fill="#F8AA13"/>
<path d="M372.626 61.0039C380.033 64.5727 385.195 64.2946 386.53 61.5268C387.866 58.7589 384.865 54.5466 377.459 50.9745C370.052 47.4057 361.042 45.8295 359.71 48.5989C358.374 51.3668 365.218 57.435 372.626 61.0039Z" fill="#F8AA13"/>
<path d="M381.961 49.3588C389.069 53.9498 394.38 54.3271 396.096 51.6694C397.813 49.0116 395.289 44.325 388.18 39.734C381.072 35.143 372.072 32.3813 370.355 35.0391C368.638 37.6968 374.852 44.7679 381.964 49.3604L381.961 49.3588Z" fill="#F8AA13"/>
<path d="M392.577 36.936C398.435 43.4946 403.655 45.3311 406.106 43.1383C408.557 40.9455 407.316 35.5566 401.457 28.998C395.598 22.4394 387.337 17.1966 384.886 19.3894C382.435 21.5822 386.718 30.3774 392.578 36.9328L392.577 36.936Z" fill="#F8AA13"/>
<path d="M336.816 91.1994C343.823 91.6966 347.836 89.8445 348.019 87.224C348.206 84.6049 344.493 82.2051 337.488 81.7126C330.481 81.2155 322.83 82.8104 322.643 85.4295C322.457 88.0485 329.808 90.7054 336.816 91.1994Z" fill="#F8AA13"/>
<path d="M324.985 95.0741C331.665 92.9038 336.006 93.7318 336.818 96.2275C337.629 98.7265 334.607 101.947 327.926 104.117C321.246 106.287 313.438 106.589 312.627 104.09C311.816 101.591 318.306 97.2413 324.986 95.071L324.985 95.0741Z" fill="#F8AA13"/>
<path d="M164.29 403.544C177.933 432.001 180.923 454.028 180.923 454.028C180.923 454.028 171.548 451.01 157.65 443.935C156.956 440.762 156.141 437.723 155.241 435.886L154.626 442.369C146.003 437.822 135.905 431.808 125.345 424.127C125.9 418.666 125.13 410.598 124.324 405.469C124.324 405.469 122.624 412.794 119.752 419.93C105.969 409.256 91.7227 395.731 79.1838 378.881C80.9899 372.722 84.8213 360.835 85.5364 356.882C86.2119 353.157 79.3319 363.447 73.0457 370.121C61.0861 352.059 51.2153 330.569 45.665 305.17C45.137 302.751 44.1606 300.449 42.794 298.389C38.7845 292.352 32.8329 282.487 30.815 274.423L35.678 272.429C37.1988 279.498 42.7458 288.84 46.6868 294.843C47.6557 296.324 49.0839 297.418 50.731 298.072L50.7551 298.08C105.283 319.878 137.352 355.951 156.005 387.918L129.152 391.45C141.589 396.962 150.951 397.766 164.29 403.544Z" fill="#F5AB3E"/>
<path d="M175.735 449.328C175.169 448.502 174.462 447.789 173.81 447.036L171.798 444.817L167.724 440.424L159.568 431.645C154.103 425.819 148.646 419.984 143.236 414.109C132.408 402.366 121.604 390.607 111.016 378.657C105.7 372.7 100.451 366.69 95.2645 360.623C90.0548 354.58 84.9588 348.436 79.91 342.259C74.869 336.073 69.9536 329.782 65.2389 323.347C60.4769 316.945 55.9666 310.355 51.8699 303.49C59.401 317.615 68.9593 330.554 78.7392 343.19C88.5707 355.812 98.9678 367.978 109.569 379.948C120.209 391.886 131.064 403.624 142.159 415.13C147.71 420.883 153.28 426.608 158.89 432.3L167.36 440.777L171.595 445.02L173.712 447.137C174.403 447.858 175.142 448.538 175.747 449.332L175.735 449.328Z" fill="#AA8573"/>
<path d="M145.6 437.355L145.917 435.156L146.203 432.957C146.398 431.494 146.562 430.024 146.738 428.557C146.894 427.087 147.061 425.62 147.189 424.147C147.321 422.677 147.453 421.199 147.516 419.718C147.347 420.439 147.213 421.171 147.063 421.896L146.69 424.088C146.45 425.548 146.262 427.019 146.091 428.49C145.935 429.96 145.787 431.438 145.707 432.911C145.623 434.388 145.552 435.869 145.592 437.355L145.6 437.355Z" fill="#AA8573"/>
<path d="M130.906 428.05C131.179 426.043 131.388 424.029 131.582 422.016C131.783 420.003 131.933 417.986 132.086 415.973C132.22 413.957 132.357 411.937 132.439 409.918L132.561 406.889C132.578 405.88 132.615 404.866 132.62 403.853C132.475 404.857 132.374 405.864 132.246 406.867L131.944 409.887C131.742 411.901 131.593 413.917 131.443 415.934C131.31 417.95 131.176 419.966 131.091 421.989C131.001 424.009 130.92 426.028 130.914 428.058L130.906 428.05Z" fill="#AA8573"/>
<path d="M102.161 404.798C103.012 402.557 103.678 400.248 104.301 397.935C104.927 395.619 105.449 393.28 105.935 390.93C106.398 388.581 106.832 386.22 107.162 383.845C107.339 382.662 107.48 381.467 107.641 380.284C107.766 379.089 107.895 377.898 107.992 376.708L106.67 383.763C106.223 386.112 105.773 388.457 105.299 390.803C104.829 393.144 104.326 395.478 103.816 397.813C103.559 398.982 103.294 400.143 103.009 401.309C102.747 402.474 102.45 403.636 102.157 404.794L102.161 404.798Z" fill="#AA8573"/>
<path d="M97.6135 400.035C98.4645 397.794 99.1308 395.484 99.7532 393.172C100.379 390.855 100.902 388.517 101.388 386.167C101.85 383.818 102.284 381.457 102.614 379.082C102.791 377.898 102.932 376.703 103.093 375.52C103.218 374.326 103.347 373.135 103.445 371.945L102.122 379C101.676 381.349 101.226 383.694 100.751 386.039C100.281 388.381 99.7787 390.715 99.2684 393.049C99.0113 394.219 98.7461 395.38 98.461 396.546C98.1998 397.711 97.9027 398.873 97.6095 400.031L97.6135 400.035Z" fill="#AA8573"/>
<path d="M64.8308 356.527C65.9101 354.975 66.8522 353.338 67.7461 351.679C68.6479 350.019 69.4693 348.321 70.2383 346.596C70.9952 344.867 71.72 343.123 72.3363 341.337C72.6545 340.445 72.9447 339.551 73.2349 338.656C73.509 337.754 73.7631 336.848 73.997 335.93C73.2722 337.674 72.6034 339.425 71.8703 341.154C71.1493 342.886 70.4122 344.611 69.647 346.324C68.8978 348.044 68.0963 349.738 67.307 351.444C66.5057 353.146 65.6761 354.828 64.8346 356.515L64.8308 356.527Z" fill="#AA8573"/>
<path d="M54.2546 333.786C55.0436 332.487 55.6917 331.115 56.2955 329.724C56.9034 328.337 57.4308 326.911 57.9142 325.475C58.3735 324.031 58.8207 322.583 59.1597 321.101C59.3372 320.364 59.4867 319.623 59.6443 318.883C59.7777 318.135 59.9072 317.39 60.0047 316.639L58.6747 320.971C58.2273 322.41 57.7718 323.843 57.2963 325.271C56.8328 326.703 56.3291 328.12 55.8295 329.541C55.5837 330.252 55.3179 330.959 55.0521 331.665C54.7983 332.376 54.5205 333.079 54.2467 333.786L54.2546 333.786Z" fill="#AA8573"/>
<path d="M138.537 410.194C141.138 411.118 143.773 411.941 146.42 412.729C149.067 413.517 151.732 414.228 154.401 414.935C157.084 415.587 159.764 416.242 162.474 416.785C165.18 417.324 167.904 417.811 170.65 418.122C169.3 417.817 167.948 417.555 166.61 417.23C165.264 416.944 163.922 416.614 162.585 416.297C159.909 415.653 157.229 415.006 154.564 414.302C151.888 413.651 149.227 412.927 146.558 412.244L138.545 410.186L138.537 410.194Z" fill="#AA8573"/>
<path d="M99.3731 366.834C103.128 368.234 107.023 369.254 110.927 370.141C114.84 371.02 118.804 371.684 122.774 372.251C124.768 372.472 126.755 372.742 128.755 372.9L131.751 373.162L134.757 373.333C136.757 373.467 138.767 373.469 140.766 373.531C142.767 373.541 144.776 373.503 146.777 373.466C142.775 373.306 138.777 373.158 134.787 372.838C130.799 372.566 126.823 372.127 122.861 371.607C118.896 371.1 114.956 370.428 111.034 369.657C109.073 369.279 107.119 368.845 105.176 368.375C103.229 367.917 101.29 367.412 99.3731 366.834Z" fill="#AA8573"/>
<path d="M81.4074 345.329C85.1952 346.158 89.0157 346.824 92.8473 347.438C96.6787 348.044 100.524 348.545 104.376 348.991C108.235 349.373 112.102 349.739 115.977 349.901C119.852 350.056 123.74 350.098 127.607 349.822L124.7 349.801C123.731 349.807 122.765 349.738 121.795 349.712C120.83 349.69 119.86 349.649 118.898 349.583C117.932 349.522 116.962 349.488 116 349.406C112.139 349.14 108.288 348.782 104.44 348.348C100.589 347.958 96.7512 347.448 92.9138 346.946C90.9912 346.699 89.0722 346.432 87.1569 346.153L81.4033 345.325L81.4074 345.329Z" fill="#AA8573"/>
<path d="M66.7453 326.262C69.6172 326.734 72.5098 327.038 75.4093 327.279C78.3087 327.519 81.2176 327.628 84.1218 327.701C87.0332 327.726 89.943 327.671 92.8465 327.493C95.7497 327.298 98.6504 326.969 101.508 326.448C100.058 326.547 98.6179 326.726 97.1674 326.777C95.722 326.888 94.2716 326.94 92.8252 326.995C89.9277 327.069 87.0299 327.128 84.1336 327.055C81.2343 327.033 78.3371 326.913 75.4398 326.784C73.9911 326.719 72.5422 326.639 71.097 326.546C69.6482 326.474 68.1986 326.362 66.7493 326.265L66.7453 326.262Z" fill="#AA8573"/>
<path d="M63.1781 321.268C65.6398 321.557 68.1109 321.706 70.581 321.807C73.0551 321.904 75.5312 321.901 78.0109 321.87C80.4854 321.78 82.9634 321.662 85.4269 321.412C87.8941 321.142 90.3516 320.785 92.7572 320.213C91.5276 320.344 90.3069 320.53 89.0724 320.617C87.847 320.76 86.6161 320.827 85.3857 320.918C82.9243 321.068 80.4622 321.186 77.9907 321.225C75.524 321.307 73.0557 321.302 70.5877 321.312C69.3517 321.32 68.1195 321.315 66.883 321.298L63.1742 321.273L63.1781 321.268Z" fill="#AA8573"/>
<path d="M110.716 217.49C114.363 218.223 118.434 218.309 123.827 218.604C127.627 218.811 131.52 219.992 134.108 220.942C135.357 221.399 136.616 220.291 136.315 218.995C135.768 216.638 135.229 213.855 135.116 212.254C134.699 206.28 135.41 200.276 137.09 194.528C138.87 188.433 139.649 182.859 139.987 179.269C140.092 178.151 141.554 177.786 142.165 178.728C143.733 181.141 146.385 184.401 150.666 187.579C160.442 194.83 165.555 205.841 167.325 210.026C167.65 210.796 168.666 210.97 169.23 210.352C171.887 207.435 178.714 200.398 187.158 195.193C187.451 195.013 187.805 195.298 187.69 195.62C186.633 198.602 184.005 207.732 189.172 213.18C189.254 213.266 189.261 213.399 189.184 213.49C187.927 214.965 178.835 226.415 197.309 228.438C197.781 228.49 197.953 229.089 197.579 229.383C196.571 230.168 194.949 231.466 193.161 233.036C188.108 237.473 181.826 240.243 175.145 240.999C170.25 241.551 165.14 243.188 163.551 247.434C164.334 249.479 166.051 253.407 168.916 257.261C173.132 262.934 173.203 265.805 173.204 265.922L172.468 265.931C172.468 265.903 172.367 263.139 168.326 257.7C165.37 253.721 163.609 249.658 162.825 247.597C162.554 247.344 162.25 246.994 162.027 246.874C159.07 245.281 155.418 245.953 153.132 248.415C149.543 252.276 144.728 256.07 140.947 255.501C138.691 255.162 132.526 254.992 129.241 254.924C128.558 254.911 128.238 254.066 128.747 253.608C131.183 251.416 132.674 248.74 133.358 247.297C133.585 246.819 133.264 246.268 132.736 246.211C126.095 245.513 122.144 237.342 122.144 237.342C117.888 228.68 112.565 221.79 110.004 218.705C109.556 218.166 110.034 217.357 110.722 217.494L110.716 217.49Z" fill="#F15A24"/>
</svg>


