<svg width="130" height="76" viewBox="0 0 130 76" fill="none" xmlns="http://www.w3.org/2000/svg">
<rect x="18" y="40.0231" width="109" height="34" rx="17" transform="rotate(-5 18 40.0231)" fill="#6F2F13"/>
<path d="M44.1203 59.8219C44.2144 60.8978 43.9156 60.9239 42.2021 61.0738L41.6356 54.5986C41.0717 56.4146 40.4376 58.1164 39.6892 59.8883C39.1523 60.1762 38.4437 60.3386 37.7681 60.4178C36.7831 58.7975 35.7426 57.0013 34.8632 55.2112L35.421 61.5868L33.3888 61.7646L32.5922 52.6594C33.3525 52.1713 34.4508 51.8744 35.324 51.7579C36.089 53.6183 37.3542 55.9167 38.5464 57.8402C39.3025 55.927 40.2203 53.3371 40.5946 51.8789C41.3948 51.3873 42.4983 51.1503 43.3533 51.0554L44.1203 59.8219ZM54.9407 50.1822L54.9599 50.4013L52.3106 60.0489C52.1699 62.5708 51.0071 63.7366 49.3135 63.8847C48.397 63.9649 47.4726 63.7246 47.3906 62.7881L47.3244 62.031C47.6718 62.101 48.0339 62.1095 48.3527 62.0816C49.2891 61.9997 49.8866 61.4857 50.0351 60.4287C47.956 57.3181 46.2304 54.1163 44.8791 51.0624L47.5888 50.8254C48.4537 53.1388 49.6765 55.6417 50.8809 57.7046L52.5299 50.3931L54.9407 50.1822ZM59.7426 62.7715L57.5111 62.9668L56.4775 51.1519C56.3746 49.9764 56.6535 49.952 58.6061 49.7812L58.7787 51.7536C59.399 50.3542 60.5482 49.4908 62.1222 49.3531C64.6126 49.1352 66.0551 50.9363 66.2887 53.6061C66.5449 56.5349 64.9316 59.2057 62.2817 59.4376C61.1261 59.5387 60.0933 59.2074 59.3574 58.3684L59.7426 62.7715ZM63.9429 53.8716C63.8157 52.4172 63.1011 51.1345 61.5471 51.2705C59.9332 51.4117 59.0748 53.0728 59.2648 55.2445C59.3693 56.44 60.2216 57.6905 61.5963 57.5702C63.3496 57.4168 64.0928 55.585 63.9429 53.8716ZM67.7503 56.0079C67.6196 54.5136 68.565 53.3869 71.0328 52.91L73.4807 52.4349L73.4755 52.3751C73.2259 50.6703 72.0666 50.2699 70.6321 50.3954C69.7554 50.4721 68.9812 50.8008 68.2502 51.1659L68.1927 50.5084C68.0916 49.3528 70.0386 48.6605 71.4134 48.5402C73.1667 48.3868 75.2278 48.7686 75.7545 52.0352L76.5342 57.0463C76.7028 58.0554 75.9656 58.1199 74.3319 58.2628L74.0841 56.578C73.4263 57.7799 72.3898 58.5532 70.8955 58.6839C68.8832 58.86 67.8741 57.4225 67.7503 56.0079ZM70.252 55.6886C70.3217 56.4856 70.8141 57.0649 71.6907 56.9882C73.0256 56.8714 73.6901 55.2875 73.6443 53.846L71.4572 54.3184C70.6507 54.5094 70.1927 55.0112 70.252 55.6886ZM85.9889 54.3319C86.1458 56.1251 84.5013 57.2928 82.4293 57.4741L81.7319 57.5351C79.8391 57.7007 78.639 57.0629 78.4664 55.0904L77.9644 49.3523C77.8616 48.1768 78.1206 48.1542 80.0731 47.9833L81.8065 47.8317C83.8786 47.6504 85.4409 48.2967 85.5925 50.0301C85.6884 51.1259 85.1153 51.9189 84.1358 52.4262C85.198 52.6344 85.8878 53.1763 85.9889 54.3319ZM83.7271 54.4093C83.6521 53.5526 82.8343 53.3832 81.6787 53.4843L80.5629 53.582L80.6588 54.6778C80.7338 55.5345 81.1472 55.8999 81.9441 55.8301L82.1234 55.8144C83.1396 55.7256 83.7951 55.1864 83.7271 54.4093ZM83.3508 50.5675C83.2706 49.651 82.451 49.4617 81.5345 49.5419L80.2195 49.657L80.4427 52.2072L81.399 52.1235C82.6144 52.0172 83.4362 51.5438 83.3508 50.5675ZM95.4809 53.0397C95.6761 55.2712 93.9537 56.4659 92.0211 56.6349L91.4433 56.6855C89.3313 56.8703 88.2672 56.1804 88.0911 54.1681L87.5786 48.3104C87.4862 47.2545 87.8449 47.2231 89.7177 47.0592L90.0315 50.6455L91.466 50.52C93.6377 50.33 95.2944 50.9079 95.4809 53.0397ZM91.3352 52.238L90.1796 52.3391L90.3173 53.9131C90.3836 54.6702 90.797 55.0355 91.5342 54.971L91.7733 54.9501C92.5702 54.8804 93.3323 54.4122 93.2434 53.3961C93.1563 52.3999 92.3115 52.1526 91.3352 52.238ZM105.28 53.3468L105.34 54.0242C105.444 55.2196 103.689 55.8148 102.076 55.956C99.2265 56.2053 97.0573 54.5882 96.747 51.0418C96.51 48.3321 98.2302 46.194 101.039 45.9483C103.749 45.7112 105.46 47.3684 105.695 50.0581C105.788 51.1141 104.995 51.4645 104.198 51.5342L99.297 51.963C99.7717 53.4874 100.917 54.1903 102.89 54.0177C103.747 53.9428 104.528 53.6937 105.28 53.3468ZM101.126 47.6271C99.5919 47.7613 99.0087 48.8965 99.0632 50.4376L102.769 50.1134C103.187 50.0768 103.297 49.7259 103.276 49.4868C103.163 48.1917 102.302 47.5243 101.126 47.6271ZM100.295 42.9417C100.366 43.7586 100.006 44.2318 99.0894 44.312C98.1331 44.3957 97.7361 43.9887 97.6646 43.1718C97.5949 42.3749 97.9134 41.8853 98.8698 41.8016C99.7863 41.7214 100.225 42.1448 100.295 42.9417ZM104.02 42.6158C104.092 43.4327 103.732 43.9059 102.815 43.986C101.879 44.068 101.462 43.6628 101.39 42.8459C101.321 42.0489 101.659 41.5575 102.596 41.4756C103.512 41.3954 103.951 41.8188 104.02 42.6158ZM115.33 51.7649C115.487 53.558 113.842 54.7258 111.77 54.9071L111.073 54.9681C109.18 55.1337 107.98 54.4959 107.807 52.5234L107.305 46.7853C107.203 45.6098 107.462 45.5872 109.414 45.4163L111.148 45.2647C113.22 45.0834 114.782 45.7297 114.934 47.4631C115.029 48.5589 114.456 49.3519 113.477 49.8592C114.539 50.0674 115.229 50.6093 115.33 51.7649ZM113.068 51.8423C112.993 50.9856 112.175 50.8162 111.02 50.9173L109.904 51.015L110 52.1108C110.075 52.9675 110.488 53.3329 111.285 53.2631L111.464 53.2474C112.481 53.1585 113.136 52.6194 113.068 51.8423ZM112.692 48.0005C112.612 47.084 111.792 46.8947 110.876 46.9749L109.561 47.0899L109.784 49.6402L110.74 49.5565C111.955 49.4502 112.777 48.9768 112.692 48.0005Z" fill="white"/>
<rect y="11.3167" width="61" height="34" rx="17" transform="rotate(-5 0 11.3167)" fill="#6F2F13"/>
<path d="M26.5289 30.9593C26.6334 32.1547 26.3147 32.1826 24.2625 32.3621L23.445 23.0178C23.3578 22.0216 22.9028 21.6398 21.8867 21.7287L17.1448 22.1436L18.0791 32.8228L15.7082 33.0302L14.6919 21.4146C14.5856 20.1992 14.9442 20.1679 16.9566 19.9918L22.1965 19.5334C24.6671 19.3172 25.5771 20.0808 25.7845 22.4518L26.5289 30.9593ZM31.7651 34.938L29.5336 35.1333L28.4999 23.3184C28.3971 22.1429 28.676 22.1185 30.6286 21.9477L30.8011 23.9201C31.4215 22.5207 32.5707 21.6573 34.1446 21.5196C36.6351 21.3017 38.0776 23.1028 38.3112 25.7726C38.5674 28.7014 36.954 31.3722 34.3042 31.6041C33.1486 31.7052 32.1158 31.3739 31.3799 30.5349L31.7651 34.938ZM35.9654 26.0381C35.8381 24.5836 35.1236 23.301 33.5696 23.437C31.9557 23.5782 31.0972 25.2393 31.2872 27.411C31.3918 28.6065 32.2441 29.857 33.6188 29.7367C35.3721 29.5833 36.1153 27.7515 35.9654 26.0381ZM49.2553 25.036C49.5255 28.1242 47.7993 30.4234 44.9303 30.6744C42.0613 30.9254 39.962 28.9609 39.6919 25.8727C39.4252 22.8243 41.045 20.9159 44.0535 20.6527C47.062 20.3895 48.9886 21.9876 49.2553 25.036ZM46.9242 25.2399C46.7726 23.5065 45.949 22.3539 44.2156 22.5056C42.4822 22.6572 41.8912 23.9336 42.0429 25.667C42.1963 27.4203 43.1491 28.9029 44.763 28.7617C46.3967 28.6188 47.0776 26.9932 46.9242 25.2399Z" fill="white"/>
</svg>
