<svg width="108" height="67" viewBox="0 0 108 67" fill="none" xmlns="http://www.w3.org/2000/svg">
<rect x="37" y="29.4757" width="68" height="34" rx="17" transform="rotate(-5 37 29.4757)" fill="#FECF0A"/>
<path d="M60.9798 49.3413C61.0844 50.5368 60.8254 50.5594 58.8728 50.7303L58.3115 44.3148C58.2296 43.3783 57.8326 42.9714 56.936 43.0498L53.7881 43.3252L54.4627 51.0358L52.2312 51.231L51.4921 42.7833C51.3893 41.6078 51.6682 41.5834 53.6207 41.4126L57.207 41.0988C59.4784 40.9001 60.3 41.571 60.4882 43.7228L60.9798 49.3413ZM71.7857 48.3959C71.8903 49.5914 71.6313 49.614 69.6787 49.7849L69.3057 45.5212C68.5787 46.8496 67.4572 47.5701 66.1024 47.6886C64.2296 47.8524 62.9841 46.6966 62.8098 44.7042L62.5501 41.7355C62.4472 40.56 62.7261 40.5356 64.6787 40.3648L64.9297 43.2338C65.0691 44.8278 65.6345 45.7821 66.9295 45.6688C68.2047 45.5573 69.1994 44.3058 69.0251 42.3134L68.8298 40.0819L71.0414 39.8884L71.7857 48.3959ZM81.9986 46.4986L82.0578 47.176C82.1624 48.3715 80.4076 48.9667 78.7938 49.1079C75.9447 49.3571 73.7755 47.74 73.4652 44.1936C73.2281 41.4839 74.9483 39.3459 77.7576 39.1001C80.4673 38.863 82.1782 40.5202 82.4135 43.2099C82.5059 44.2659 81.7134 44.6163 80.9165 44.686L76.0152 45.1148C76.4899 46.6393 77.6355 47.3421 79.6079 47.1695C80.4647 47.0946 81.2459 46.8455 81.9986 46.4986ZM77.8443 40.7789C76.3101 40.9131 75.7268 42.0483 75.7814 43.5894L79.4872 43.2652C79.9056 43.2286 80.0154 42.8777 79.9945 42.6386C79.8812 41.3435 79.0198 40.6761 77.8443 40.7789ZM77.0127 36.0936C77.0842 36.9104 76.7241 37.3836 75.8076 37.4638C74.8512 37.5475 74.4542 37.1405 74.3828 36.3237C74.3131 35.5267 74.6316 35.0371 75.5879 34.9534C76.5044 34.8732 76.943 35.2966 77.0127 36.0936ZM80.7385 35.7676C80.81 36.5845 80.4498 37.0577 79.5333 37.1379C78.5969 37.2198 78.18 36.8146 78.1085 35.9977C78.0388 35.2007 78.3773 34.7094 79.3137 34.6274C80.2302 34.5473 80.6688 34.9706 80.7385 35.7676ZM93.4126 46.5038C93.5172 47.6993 93.2582 47.7219 91.3056 47.8928L90.7444 41.4773C90.6624 40.5408 90.2455 40.1356 89.3689 40.2123L87.7351 40.3553L87.608 45.787C87.5622 47.5577 86.6938 48.4167 85.3389 48.5352C84.4822 48.6102 83.7535 48.3126 83.6838 47.5156L83.6262 46.8581C83.8723 46.9169 84.0733 46.9194 84.3323 46.8967C85.0496 46.834 85.3464 46.3262 85.3816 45.5803L85.7228 40.5313L84.8063 40.6115C84.686 39.2368 84.6589 38.6971 85.3762 38.6343L89.6399 38.2613C91.9112 38.0626 92.7328 38.7335 92.9211 40.8853L93.4126 46.5038Z" fill="#003595"/>
<rect y="9.31665" width="61" height="34" rx="17" transform="rotate(-5 0 9.31665)" fill="#FECF0A"/>
<path d="M26.5289 28.9593C26.6335 30.1547 26.3147 30.1826 24.2625 30.3621L23.445 21.0178C23.3578 20.0216 22.9028 19.6398 21.8867 19.7287L17.1448 20.1436L18.0791 30.8228L15.7082 31.0302L14.692 19.4146C14.5856 18.1992 14.9443 18.1679 16.9566 17.9918L22.1966 17.5334C24.6671 17.3172 25.5771 18.0808 25.7846 20.4518L26.5289 28.9593ZM31.7651 32.938L29.5336 33.1333L28.5 21.3184C28.3971 20.1429 28.676 20.1185 30.6286 19.9477L30.8012 21.9201C31.4216 20.5207 32.5707 19.6573 34.1447 19.5196C36.6351 19.3017 38.0776 21.1028 38.3112 23.7726C38.5674 26.7014 36.9541 29.3722 34.3042 29.6041C33.1486 29.7052 32.1158 29.3739 31.3799 28.5349L31.7651 32.938ZM35.9654 24.0381C35.8382 22.5836 35.1236 21.301 33.5696 21.437C31.9557 21.5782 31.0973 23.2393 31.2873 25.411C31.3918 26.6065 32.2441 27.857 33.6188 27.7367C35.3721 27.5833 36.1153 25.7515 35.9654 24.0381ZM49.2554 23.036C49.5255 26.1242 47.7994 28.4234 44.9303 28.6744C42.0613 28.9254 39.9621 26.9609 39.6919 23.8727C39.4252 20.8243 41.045 18.9159 44.0535 18.6527C47.062 18.3895 48.9887 19.9876 49.2554 23.036ZM46.9243 23.2399C46.7726 21.5065 45.949 20.3539 44.2156 20.5056C42.4823 20.6572 41.8913 21.9336 42.0429 23.667C42.1963 25.4203 43.1491 26.9029 44.763 26.7617C46.3967 26.6188 47.0777 24.9932 46.9243 23.2399Z" fill="#003595"/>
</svg>
