<svg width="129" height="70" viewBox="0 0 129 70" fill="none" xmlns="http://www.w3.org/2000/svg">
<rect x="27" y="33.1986" width="99" height="34" rx="17" transform="rotate(-5 27 33.1986)" fill="#B4E4FB"/>
<path d="M50.6622 50.0203C50.9132 52.8894 48.7925 54.5806 46.3817 54.7916C44.0905 54.992 41.8279 53.6842 41.603 51.1141C41.4653 49.5401 41.9784 48.2906 43.4749 47.4971C42.2897 47.2595 41.3391 46.7203 41.2415 45.6046C41.0218 43.0942 45.6395 41.9474 48.7675 41.6737C49.5246 41.6075 49.615 42.1818 49.7353 43.5565C46.5076 43.8389 43.528 44.6617 43.6117 45.6181C43.6709 46.2955 44.7842 46.3989 46.0317 46.4303C48.4295 46.3008 50.4251 47.3107 50.6622 50.0203ZM48.2912 50.2278C48.1692 48.8331 47.3553 48.0209 45.9407 48.1447C44.5062 48.2702 43.8457 49.2114 43.9678 50.606C44.1037 52.1601 45.1039 53.0363 46.3591 52.9264C47.5944 52.8184 48.4272 51.7818 48.2912 50.2278ZM52.0497 51.3444C51.919 49.8502 52.8644 48.7235 55.3322 48.2466L57.7801 47.7714L57.7749 47.7116C57.5254 46.0069 56.3661 45.6064 54.9315 45.7319C54.0549 45.8086 53.2806 46.1374 52.5496 46.5025L52.4921 45.845C52.391 44.6894 54.3381 43.997 55.7128 43.8768C57.4661 43.7234 59.5273 44.1052 60.054 47.3717L60.8337 52.3828C61.0023 53.392 60.2651 53.4565 58.6313 53.5994L58.3835 51.9146C57.7258 53.1165 56.6892 53.8898 55.1949 54.0205C53.1826 54.1966 52.1735 52.759 52.0497 51.3444ZM54.5514 51.0252C54.6212 51.8221 55.1135 52.4014 55.9902 52.3247C57.3251 52.208 57.9896 50.624 57.9437 49.1825L55.7566 49.6549C54.9502 49.846 54.4922 50.3478 54.5514 51.0252ZM71.2671 48.2176C71.5181 51.0867 69.3974 52.778 66.9866 52.9889C64.6954 53.1893 62.4328 51.8815 62.2079 49.3114C62.0702 47.7374 62.5833 46.4879 64.0798 45.6945C62.8946 45.4568 61.944 44.9176 61.8464 43.8019C61.6267 41.2915 66.2444 40.1447 69.3724 39.871C70.1295 39.8048 70.2199 40.3791 70.3402 41.7538C67.1125 42.0362 64.1329 42.859 64.2166 43.8154C64.2758 44.4928 65.3891 44.5962 66.6366 44.6276C69.0344 44.4981 71.03 45.508 71.2671 48.2176ZM68.8961 48.4251C68.7741 47.0304 67.9602 46.2182 66.5456 46.342C65.1111 46.4675 64.4506 47.4087 64.5726 48.8033C64.7086 50.3574 65.7088 51.2336 66.964 51.1237C68.1993 51.0157 69.0321 49.9791 68.8961 48.4251ZM82.1372 46.4033C82.4074 49.4916 80.6812 51.7907 77.8121 52.0418C74.9431 52.2928 72.8439 50.3282 72.5737 47.24C72.307 44.1917 73.9268 42.2832 76.9354 42.02C79.9439 41.7568 81.8705 43.355 82.1372 46.4033ZM79.8061 46.6073C79.6544 44.8739 78.8308 43.7213 77.0975 43.873C75.3641 44.0246 74.7731 45.301 74.9247 47.0344C75.0781 48.7877 76.031 50.2703 77.6448 50.1291C79.2786 49.9861 79.9595 48.3606 79.8061 46.6073ZM92.8312 49.4027C92.9357 50.5982 92.6767 50.6208 90.7242 50.7916L90.3512 46.5279C89.6242 47.8563 88.5027 48.5768 87.1479 48.6954C85.275 48.8592 84.0296 47.7034 83.8552 45.711L83.5955 42.7423C83.4927 41.5668 83.7716 41.5424 85.7242 41.3716L85.9752 44.2406C86.1146 45.8345 86.6799 46.7889 87.975 46.6756C89.2501 46.564 90.2448 45.3126 90.0705 43.3202L89.8753 41.0887L92.0869 40.8952L92.8312 49.4027ZM103.044 47.5054L103.103 48.1828C103.208 49.3782 101.453 49.9734 99.8393 50.1146C96.9901 50.3639 94.8209 48.7468 94.5107 45.2004C94.2736 42.4907 95.9938 40.3526 98.8031 40.1069C101.513 39.8698 103.224 41.527 103.459 44.2167C103.551 45.2727 102.759 45.6231 101.962 45.6928L97.0607 46.1216C97.5353 47.646 98.6809 48.3489 100.653 48.1763C101.51 48.1013 102.291 47.8523 103.044 47.5054ZM98.8897 41.7857C97.3556 41.9199 96.7723 43.0551 96.8268 44.5962L100.533 44.272C100.951 44.2354 101.061 43.8845 101.04 43.6454C100.927 42.3503 100.065 41.6829 98.8897 41.7857ZM113.098 48.9547C112.022 49.0488 111.615 48.7631 110.817 47.6685L108.965 45.321L108.607 45.3524L107.73 45.4291L108.06 49.1947L105.828 49.3899L105.082 40.8625C104.979 39.687 105.258 39.6626 107.211 39.4917L107.578 43.6957L108.694 43.5981C111.025 43.3941 109.571 39.1648 112.56 38.9033C113.317 38.8371 113.962 39.1018 114.027 39.839L114.065 40.2773L113.886 40.293C111.913 40.4656 112.6 43.0355 111.018 44.4588L112.82 46.4694C113.358 47.105 113.865 47.4019 114.503 47.3461L114.682 47.3304L114.728 47.8484C114.787 48.5258 113.915 48.8832 113.098 48.9547Z" fill="#003595"/>
<rect y="10.9999" width="61" height="34" rx="17" transform="rotate(-5 0 10.9999)" fill="#B4E4FB"/>
<path d="M26.5289 30.6425L25.7846 22.135C25.5771 19.764 24.6671 19.0005 22.1966 19.2166L16.9566 19.675C14.9443 19.8511 14.5856 19.8825 14.692 21.0978L15.7082 32.7135L18.0791 32.506L17.1448 21.8268L21.8867 21.412C22.9028 21.3231 23.3578 21.7049 23.445 22.7011L24.2625 32.0454C26.3147 31.8658 26.6335 31.8379 26.5289 30.6425ZM31.7651 34.6213L31.3799 30.2181C32.1158 31.0571 33.1486 31.3884 34.3042 31.2873C36.9541 31.0555 38.5674 28.3847 38.3112 25.4559C38.0776 22.7861 36.6351 20.9849 34.1447 21.2028C32.5707 21.3405 31.4216 22.204 30.8012 23.6034L30.6286 21.6309C28.676 21.8017 28.3971 21.8261 28.5 23.0016L29.5336 34.8165L31.7651 34.6213ZM35.9654 25.7213C36.1153 27.4348 35.3721 29.2665 33.6188 29.4199C32.2441 29.5402 31.3918 28.2897 31.2873 27.0943C31.0973 24.9226 31.9557 23.2614 33.5696 23.1202C35.1236 22.9843 35.8382 24.2669 35.9654 25.7213ZM49.2554 24.7192C48.9887 21.6709 47.062 20.0727 44.0535 20.3359C41.045 20.5991 39.4252 22.5076 39.6919 25.5559C39.9621 28.6441 42.0613 30.6086 44.9303 30.3576C47.7994 30.1066 49.5255 27.8074 49.2554 24.7192ZM46.9243 24.9232C47.0777 26.6765 46.3967 28.302 44.763 28.4449C43.1491 28.5861 42.1963 27.1035 42.0429 25.3502C41.8913 23.6168 42.4823 22.3405 44.2156 22.1888C45.949 22.0372 46.7726 23.1898 46.9243 24.9232Z" fill="#003595"/>
</svg>
