<svg width="141" height="70" viewBox="0 0 141 70" fill="none" xmlns="http://www.w3.org/2000/svg">
<rect x="38" y="32.4756" width="100" height="34" rx="17" transform="rotate(-5 38 32.4756)" fill="#E0303B"/>
<path d="M60.4853 53.797C59.4095 53.8911 59.003 53.6055 58.2046 52.5109L56.3529 50.1633L55.9943 50.1947L55.1176 50.2714L55.4471 54.037L53.2156 54.2323L52.4696 45.7048C52.3667 44.5293 52.6457 44.5049 54.5982 44.3341L54.966 48.538L56.0817 48.4404C58.4128 48.2365 56.9587 44.0071 59.9473 43.7457C60.7044 43.6794 61.3499 43.9442 61.4144 44.6813L61.4527 45.1197L61.2734 45.1354C59.301 45.3079 59.9876 47.8779 58.4056 49.3012L60.2077 51.3118C60.7451 51.9473 61.2529 52.2442 61.8905 52.1884L62.0698 52.1727L62.1151 52.6908C62.1744 53.3682 61.3022 53.7255 60.4853 53.797ZM72.3299 47.5007C72.6001 50.5889 70.8739 52.8881 68.0049 53.1391C65.1359 53.3901 63.0367 51.4256 62.7665 48.3374C62.4998 45.2891 64.1196 43.3806 67.1281 43.1174C70.1366 42.8542 72.0632 44.4524 72.3299 47.5007ZM69.9988 47.7047C69.8472 45.9713 69.0236 44.8187 67.2902 44.9703C65.5568 45.122 64.9658 46.3984 65.1175 48.1317C65.2709 49.885 66.2237 51.3676 67.8376 51.2264C69.4713 51.0835 70.1522 49.458 69.9988 47.7047ZM77.3124 55.4367L75.081 55.6319L74.0473 43.817C73.9445 42.6415 74.2234 42.6171 76.1759 42.4463L76.3485 44.4188C76.9689 43.0194 78.118 42.1559 79.692 42.0182C82.1825 41.8003 83.625 43.6015 83.8585 46.2713C84.1148 49.2001 82.5014 51.8709 79.8515 52.1027C78.6959 52.2038 77.6631 51.8725 76.9272 51.0335L77.3124 55.4367ZM81.5127 46.5367C81.3855 45.0823 80.671 43.7997 79.1169 43.9356C77.5031 44.0768 76.6446 45.738 76.8346 47.9097C76.9392 49.1051 77.7914 50.3556 79.1662 50.2353C80.9195 50.0819 81.6627 48.2502 81.5127 46.5367ZM94.8027 45.5346C95.0729 48.6228 93.3467 50.922 90.4777 51.173C87.6086 51.424 85.5094 49.4595 85.2392 46.3713C84.9725 43.323 86.5924 41.4145 89.6009 41.1513C92.6094 40.8881 94.536 42.4863 94.8027 45.5346ZM92.4716 45.7386C92.3199 44.0052 91.4964 42.8526 89.763 43.0042C88.0296 43.1559 87.4386 44.4322 87.5902 46.1656C87.7436 47.9189 88.6965 49.4015 90.3103 49.2603C91.9441 49.1174 92.625 47.4919 92.4716 45.7386ZM104.532 46.9119C104.689 48.7051 103.044 49.8728 100.972 50.0541L100.275 50.1151C98.3818 50.2807 97.1817 49.6429 97.0091 47.6704L96.5071 41.9324C96.4043 40.7568 96.6633 40.7342 98.6158 40.5634L100.349 40.4117C102.421 40.2304 103.984 40.8767 104.135 42.6101C104.231 43.7059 103.658 44.4989 102.678 45.0062C103.741 45.2144 104.431 45.7563 104.532 46.9119ZM102.27 46.9893C102.195 46.1326 101.377 45.9633 100.221 46.0644L99.1056 46.162L99.2015 47.2578C99.2764 48.1145 99.6899 48.4799 100.487 48.4102L100.666 48.3945C101.682 48.3056 102.338 47.7664 102.27 46.9893ZM101.894 43.1475C101.813 42.231 100.994 42.0417 100.077 42.1219L98.7622 42.237L98.9853 44.7872L99.9417 44.7036C101.157 44.5972 101.979 44.1238 101.894 43.1475ZM115.505 43.7234C115.775 46.8116 114.049 49.1108 111.18 49.3618C108.311 49.6128 106.212 47.6483 105.941 44.5601C105.675 41.5117 107.295 39.6033 110.303 39.3401C113.312 39.0769 115.238 40.6751 115.505 43.7234ZM113.174 43.9274C113.022 42.194 112.199 41.0414 110.465 41.193C108.732 41.3447 108.141 42.621 108.292 44.3544C108.446 46.1077 109.399 47.5903 111.012 47.4491C112.646 47.3062 113.327 45.6807 113.174 43.9274ZM125.238 48.1319C124.162 48.226 123.756 47.9403 122.957 46.8458L121.106 44.4982L120.747 44.5296L119.87 44.6063L120.2 48.3719L117.968 48.5671L117.222 40.0397C117.119 38.8642 117.398 38.8398 119.351 38.669L119.719 42.8729L120.834 42.7753C123.165 42.5714 121.711 38.342 124.7 38.0805C125.457 38.0143 126.103 38.279 126.167 39.0162L126.205 39.4545L126.026 39.4702C124.054 39.6428 124.74 42.2127 123.158 43.636L124.96 45.6466C125.498 46.2822 126.006 46.5791 126.643 46.5233L126.822 46.5076L126.868 47.0256C126.927 47.703 126.055 48.0604 125.238 48.1319Z" fill="white"/>
<rect y="12.8242" width="134" height="34" rx="17" transform="rotate(-5 0 12.8242)" fill="#E0303B"/>
<path d="M26.4763 32.4714C26.5809 33.6669 26.2621 33.6948 24.21 33.8743L23.3925 24.53C23.3053 23.5338 22.8503 23.152 21.8342 23.2409L17.0923 23.6558L18.0266 34.335L15.6557 34.5424L14.6394 22.9268C14.5331 21.7114 14.8917 21.68 16.904 21.504L22.144 21.0455C24.6146 20.8294 25.5246 21.593 25.732 23.9639L26.4763 32.4714ZM31.7126 36.4502L29.4811 36.6454L28.4474 24.8306C28.3446 23.6551 28.6235 23.6307 30.5761 23.4598L30.7486 25.4323C31.369 24.0329 32.5181 23.1695 34.0921 23.0318C36.5826 22.8139 38.0251 24.615 38.2587 27.2848C38.5149 30.2136 36.9015 32.8844 34.2517 33.1162C33.0961 33.2173 32.0633 32.8861 31.3273 32.047L31.7126 36.4502ZM35.9129 27.5503C35.7856 26.0958 35.0711 24.8132 33.517 24.9492C31.9032 25.0904 31.0447 26.7515 31.2347 28.9232C31.3393 30.1186 32.1915 31.3691 33.5663 31.2488C35.3196 31.0955 36.0628 29.2637 35.9129 27.5503ZM49.2028 26.5481C49.473 29.6364 47.7468 31.9355 44.8778 32.1866C42.0087 32.4376 39.9095 30.473 39.6393 27.3848C39.3727 24.3365 40.9925 22.428 44.001 22.1648C47.0095 21.9016 48.9361 23.4998 49.2028 26.5481ZM46.8717 26.7521C46.7201 25.0187 45.8965 23.8661 44.1631 24.0178C42.4297 24.1694 41.8387 25.4458 41.9904 27.1792C42.1438 28.9325 43.0966 30.4151 44.7104 30.2739C46.3442 30.1309 47.0251 28.5054 46.8717 26.7521ZM64.4244 26.0797C64.6755 28.9488 62.5548 30.64 60.144 30.8509C57.8527 31.0514 55.5902 29.7436 55.3653 27.1734C55.2276 25.5994 55.7406 24.35 57.2372 23.5565C56.052 23.3189 55.1014 22.7797 55.0037 21.664C54.7841 19.1536 59.4017 18.0068 62.5298 17.7331C63.2869 17.6668 63.3773 18.2412 63.4976 19.6159C60.2699 19.8983 57.2903 20.7211 57.3739 21.6775C57.4332 22.3549 58.5464 22.4582 59.7939 22.4896C62.1918 22.3602 64.1874 23.3701 64.4244 26.0797ZM62.0535 26.2871C61.9315 24.8925 61.1176 24.0803 59.703 24.2041C58.2685 24.3296 57.608 25.2707 57.73 26.6654C57.866 28.2195 58.8661 29.0956 60.1214 28.9858C61.3566 28.8777 62.1895 27.8412 62.0535 26.2871ZM75.2946 24.2654C75.5647 27.3536 73.8386 29.6528 70.9695 29.9038C68.1005 30.1548 66.0013 28.1903 65.7311 25.1021C65.4644 22.0538 67.0842 20.1453 70.0927 19.8821C73.1012 19.6189 75.0279 21.2171 75.2946 24.2654ZM72.9635 24.4694C72.8118 22.736 71.9882 21.5834 70.2548 21.735C68.5215 21.8867 67.9305 23.163 68.0821 24.8964C68.2355 26.6497 69.1883 28.1323 70.8022 27.9911C72.4359 27.8482 73.1169 26.2227 72.9635 24.4694ZM89.4731 28.285C88.5167 28.3686 88.0557 28.148 87.3604 27.0845L85.6793 24.6217L85.3406 24.6513L84.8425 24.6949L85.172 28.4605L83.0003 28.6505L82.6708 24.8849L82.1727 24.9285L81.834 24.9581L80.6062 27.6755C80.1061 28.8435 79.5709 29.1513 78.6544 29.2315C77.977 29.2908 77.1755 29.0798 77.1163 28.4024L77.0709 27.8844L77.2503 27.8687C77.8679 27.8146 78.2186 27.4627 78.5249 26.8336L79.7659 24.4966C78.0024 23.3861 78.4463 20.657 76.6332 20.8156L76.4539 20.8313L76.4155 20.393C76.351 19.6558 76.9806 19.2795 77.6979 19.2167C80.5669 18.9657 79.5306 23.413 81.8617 23.209L82.5192 23.1515L82.2525 20.1032C82.1514 18.9476 82.4303 18.9232 84.3231 18.7576L84.6909 22.9615L85.3484 22.904C87.6795 22.7 85.8866 18.5003 88.8154 18.2441C89.5526 18.1796 90.1583 18.4478 90.2228 19.185L90.2611 19.6233L90.0818 19.639C88.2488 19.7994 89.1797 22.4082 87.6359 23.8081L89.2639 25.8941C89.6748 26.4604 90.0813 26.7461 90.6989 26.6921L90.8782 26.6764L90.9235 27.1944C90.9828 27.8718 90.1505 28.2257 89.4731 28.285ZM100.061 23.8654C100.256 26.0969 98.5335 27.2915 96.6008 27.4606L96.023 27.5112C93.9111 27.6959 92.8469 27.0061 92.6709 24.9937L92.1584 19.1361C92.066 18.0802 92.4246 18.0488 94.2975 17.8849L94.6113 21.4712L96.0458 21.3457C98.2175 21.1557 99.8741 21.7335 100.061 23.8654ZM95.915 23.0637L94.7594 23.1648L94.8971 24.7387C94.9634 25.4958 95.3768 25.8612 96.114 25.7967L96.3531 25.7758C97.15 25.7061 97.9121 25.2379 97.8232 24.2218C97.736 23.2256 96.8913 22.9782 95.915 23.0637ZM111.28 25.0521C111.384 26.2475 111.106 26.2719 109.213 26.4375L108.653 20.0419L104.242 26.9928C103.581 27.0105 102.91 26.9086 102.304 26.6404L101.586 18.4318C101.483 17.2563 101.762 17.2319 103.655 17.0663L104.213 23.4419L108.631 16.5707C109.292 16.553 109.945 16.6766 110.57 16.9431L111.28 25.0521ZM122.776 25.1705L120.186 25.3971L117.425 22.286C116.731 23.3103 116.223 24.3787 115.684 25.7911L113.133 26.0142C113.973 23.913 114.846 22.4112 116.153 20.8313L112.452 16.6179L112.431 16.3788L115.021 16.1522L117.761 19.2451C118.46 18.0597 119.015 16.8266 119.384 15.7704L121.835 15.556C121.133 17.4042 120.148 19.217 119.036 20.7397L122.756 24.9315L122.776 25.1705Z" fill="white"/>
</svg>
