<svg width="152" height="71" viewBox="0 0 152 71" fill="none" xmlns="http://www.w3.org/2000/svg">
<rect x="62" y="31.4756" width="87" height="34" rx="17" transform="rotate(-5 62 31.4756)" fill="#FECF0A"/>
<path d="M85.9015 48.2764C85.6644 45.5667 83.6688 44.5568 81.271 44.6863C80.0235 44.6549 78.9103 44.5515 78.851 43.8741C78.7673 42.9178 81.7469 42.0949 84.9746 41.8126C84.8543 40.4378 84.7639 39.8635 84.0068 39.9297C80.8788 40.2034 76.2612 41.3502 76.4808 43.8606C76.5784 44.9764 77.529 45.5156 78.7142 45.7532C77.2177 46.5466 76.7046 47.7961 76.8424 49.3701C77.0672 51.9403 79.3298 53.2481 81.6211 53.0476C84.0318 52.8367 86.1525 51.1454 85.9015 48.2764ZM83.5306 48.4838C83.6665 50.0379 82.8337 51.0744 81.5984 51.1825C80.3432 51.2923 79.343 50.4161 79.2071 48.8621C79.0851 47.4674 79.7455 46.5262 81.1801 46.4007C82.5947 46.277 83.4085 47.0891 83.5306 48.4838ZM87.2891 49.6005C87.4128 51.0151 88.4219 52.4526 90.4343 52.2765C91.9286 52.1458 92.9651 51.3725 93.6229 50.1706L93.8706 51.8554C95.5044 51.7125 96.2416 51.648 96.073 50.6389L95.2933 45.6278C94.7666 42.3612 92.7055 41.9794 90.9521 42.1328C89.5774 42.2531 87.6303 42.9454 87.7314 44.101L87.789 44.7585C88.5199 44.3934 89.2942 44.0647 90.1709 43.988C91.6054 43.8625 92.7647 44.2629 93.0142 45.9677L93.0195 46.0275L90.5716 46.5026C88.1037 46.9795 87.1583 48.1062 87.2891 49.6005ZM89.7908 49.2812C89.7315 48.6038 90.1895 48.102 90.9959 47.911L93.1831 47.4386C93.2289 48.8801 92.5644 50.464 91.2295 50.5808C90.3528 50.6575 89.8605 50.0782 89.7908 49.2812ZM100.63 51.1838L100.304 47.458L104.727 47.071L105.06 50.8765C107.012 50.7057 107.271 50.683 107.167 49.4876L106.423 40.9801L104.211 41.1736L104.568 45.258L100.145 45.6449L99.781 41.4808C97.8284 41.6517 97.5495 41.6761 97.6523 42.8516L98.3984 51.379L100.63 51.1838ZM108.945 47.7059C109.068 49.1205 110.078 50.558 112.09 50.3819C113.584 50.2512 114.621 49.4779 115.278 48.276L115.526 49.9608C117.16 49.8179 117.897 49.7534 117.729 48.7442L116.949 43.7331C116.422 40.4666 114.361 40.0848 112.608 40.2382C111.233 40.3585 109.286 41.0508 109.387 42.2064L109.445 42.8639C110.175 42.4988 110.95 42.17 111.826 42.0933C113.261 41.9678 114.42 42.3683 114.67 44.0731L114.675 44.1328L112.227 44.608C109.759 45.0849 108.814 46.2116 108.945 47.7059ZM111.446 47.3866C111.387 46.7092 111.845 46.2074 112.651 46.0164L114.839 45.5439C114.884 46.9854 114.22 48.5694 112.885 48.6862C112.008 48.7629 111.516 48.1836 111.446 47.3866ZM122.285 49.2892L121.959 45.5634L126.383 45.1764L126.715 48.9819C128.668 48.8111 128.927 48.7884 128.822 47.593L128.078 39.0855L125.867 39.279L126.224 43.3634L121.801 43.7503L121.437 39.5862C119.484 39.7571 119.205 39.7815 119.308 40.957L120.054 49.4844L122.285 49.2892ZM134.531 46.9128C134.449 45.9764 133.924 45.4803 132.868 45.5727C131.752 45.6703 131.361 46.2466 131.443 47.183C131.527 48.1394 132.01 48.619 133.126 48.5214C134.182 48.429 134.615 47.8692 134.531 46.9128ZM136.449 37.6303C136.287 35.7774 134.7 35.0731 133.006 35.2212C131.293 35.3711 129.748 36.5302 130.18 37.3356L130.47 37.8925C130.98 37.5267 131.538 37.2569 132.196 37.1994C132.973 37.1314 133.74 37.4057 133.809 38.2026C133.952 39.8364 130.887 40.8273 131.047 42.6603C131.14 43.7163 131.883 44.4141 133.039 44.313C133.776 44.2485 134.268 43.9043 134.217 43.3265L134.189 43.0078C133.791 43.0426 133.418 42.9146 133.378 42.4564C133.279 41.3207 136.681 40.2802 136.449 37.6303Z" fill="#003595"/>
<rect y="13.8242" width="124" height="34" rx="17" transform="rotate(-5 0 13.8242)" fill="#FECF0A"/>
<path d="M24.4591 34.973C25.4154 34.8893 26.3135 34.369 26.2316 33.4326L26.1984 33.0541L25.8996 33.0802C25.1225 33.1482 24.5455 32.9778 23.898 32.2314L21.2646 29.2094C23.4744 27.3899 22.3445 23.6542 25.0342 23.4189L25.3132 23.3945L25.2801 23.0159C25.1946 22.0396 24.6183 21.6484 23.5225 21.7442C19.6772 22.0807 21.9413 27.765 18.594 28.0578L17.4185 28.1607L16.9165 22.4226C14.8843 22.6004 14.5456 22.63 14.6502 23.8254L15.6751 35.5407L18.0461 35.3333L17.5998 30.2327L18.596 30.1456L19.0343 30.1072L21.8742 33.6532C22.8442 34.8733 23.4429 35.0619 24.4591 34.973ZM27.404 31.7641C27.5278 33.1787 28.5369 34.6162 30.5492 34.4401C32.0435 34.3094 33.0801 33.5361 33.7378 32.3342L33.9856 34.019C35.6194 33.8761 36.3565 33.8116 36.188 32.8025L35.4082 27.7914C34.8815 24.5248 32.8204 24.143 31.0671 24.2964C29.6924 24.4167 27.7453 25.109 27.8464 26.2646L27.9039 26.9221C28.6349 26.557 29.4092 26.2283 30.2858 26.1516C31.7204 26.0261 32.8797 26.4265 33.1292 28.1313L33.1344 28.191L30.6865 28.6662C28.2187 29.1431 27.2733 30.2698 27.404 31.7641ZM29.9057 31.4448C29.8465 30.7674 30.3045 30.2656 31.1109 30.0746L33.298 29.6022C33.3438 31.0437 32.6794 32.6276 31.3445 32.7444C30.4678 32.8211 29.9754 32.2418 29.9057 31.4448ZM45.7831 33.1074C46.6 33.0359 47.4721 32.6785 47.4129 32.0011L47.3675 31.4831L47.1882 31.4988C46.5507 31.5545 46.0429 31.2577 45.5054 30.6221L43.7033 28.6115C45.2853 27.1882 44.5987 24.6183 46.5712 24.4457L46.7505 24.43L46.7121 23.9917C46.6476 23.2545 46.0021 22.9898 45.245 23.056C42.2564 23.3175 43.7106 27.5468 41.3795 27.7508L40.2637 27.8484L39.8959 23.6444C37.9434 23.8153 37.6644 23.8397 37.7673 25.0152L38.5133 33.5426L40.7448 33.3474L40.4154 29.5818L41.292 29.5051L41.6507 29.4737L43.5023 31.8212C44.3007 32.9158 44.7072 33.2015 45.7831 33.1074ZM56.4034 35.29L56.0182 30.8869C56.7541 31.7259 57.7869 32.0572 58.9425 31.9561C61.5924 31.7242 63.2057 29.0534 62.9495 26.1246C62.7159 23.4548 61.2735 21.6537 58.783 21.8716C57.209 22.0093 56.0599 22.8727 55.4395 24.2721L55.2669 22.2997C53.3144 22.4705 53.0354 22.4949 53.1383 23.6704L54.1719 35.4853L56.4034 35.29ZM60.6037 26.3901C60.7536 28.1035 60.0104 29.9353 58.2571 30.0887C56.8824 30.209 56.0302 28.9585 55.9256 27.763C55.7356 25.5913 56.5941 23.9302 58.2079 23.789C59.762 23.653 60.4765 24.9356 60.6037 26.3901ZM64.4111 28.5264C64.5349 29.941 65.544 31.3785 67.5563 31.2024C69.0506 31.0717 70.0871 30.2984 70.7449 29.0965L70.9927 30.7813C72.6264 30.6384 73.3636 30.5739 73.195 29.5648L72.4153 24.5537C71.8886 21.2871 69.8275 20.9053 68.0742 21.0587C66.6994 21.179 64.7524 21.8713 64.8535 23.0269L64.911 23.6844C65.642 23.3193 66.4163 22.9906 67.2929 22.9139C68.7274 22.7884 69.8867 23.1888 70.1363 24.8936L70.1415 24.9533L67.6936 25.4285C65.2258 25.9054 64.2804 27.0321 64.4111 28.5264ZM66.9128 28.2071C66.8535 27.5297 67.3115 27.0279 68.118 26.8369L70.3051 26.3645C70.3509 27.806 69.6864 29.3899 68.3515 29.5067C67.4749 29.5834 66.9825 29.0041 66.9128 28.2071ZM82.7702 27.5225C82.0592 27.8858 81.2761 28.1149 80.4593 28.1864C78.1282 28.3903 76.9554 27.1478 76.7672 24.996C76.626 23.3822 77.5123 22.0398 79.0066 21.9091C79.9231 21.8289 80.6969 22.1828 80.8015 23.3783L80.8364 23.7768L81.5138 23.7175C82.231 23.6547 82.7506 23.1676 82.6721 22.271C82.524 20.5775 80.8023 19.9451 78.9693 20.1055C76.1401 20.353 74.1634 22.3128 74.4161 25.2017C74.716 28.6286 76.7778 30.3957 79.7066 30.1394C81.2208 30.007 82.9393 29.4551 82.8242 28.1401L82.7702 27.5225ZM89.8722 29.0493L89.2028 21.3985L92.5301 21.1074C92.4063 19.6928 92.3376 19.1367 91.6004 19.2012L83.6109 19.9002L83.7835 21.8726L86.9713 21.5937L87.6407 29.2445L89.8722 29.0493ZM102.136 25.8483C101.383 26.1952 100.602 26.4442 99.7452 26.5192C97.7727 26.6917 96.6271 25.9889 96.1524 24.4645L101.054 24.0357C101.851 23.966 102.643 23.6156 102.551 22.5596C102.315 19.8699 100.604 18.2127 97.8948 18.4497C95.0855 18.6955 93.3653 20.8336 93.6024 23.5432C93.9127 27.0897 96.0819 28.7068 98.931 28.4575C100.545 28.3163 102.3 27.7211 102.195 26.5257L102.136 25.8483ZM97.9815 20.1286C99.157 20.0257 100.018 20.6932 100.132 21.9882C100.153 22.2273 100.043 22.5782 99.6244 22.6148L95.9186 22.9391C95.864 21.398 96.4473 20.2628 97.9815 20.1286ZM109.485 27.3334L108.815 19.6826L112.143 19.3915C112.019 17.9769 111.95 17.4208 111.213 17.4853L103.224 18.1843L103.396 20.1568L106.584 19.8779L107.253 27.5286L109.485 27.3334Z" fill="#003595"/>
</svg>
