<svg width="170" height="74" viewBox="0 0 170 74" fill="none" xmlns="http://www.w3.org/2000/svg">
<rect x="28" y="37.0229" width="115" height="34" rx="17" transform="rotate(-5 28 37.0229)" fill="#6F2F13"/>
<path d="M57.1532 56.3557L56.4158 47.9279L54.2043 48.1213L54.8754 55.792L51.3688 56.0988L50.6977 48.4281L48.4861 48.6216L49.1572 56.2923L46.6867 56.5085C45.7901 56.5869 45.3914 56.16 45.3112 55.2435L44.7534 48.8679C42.8008 49.0387 42.5219 49.0631 42.6248 50.2386L43.1181 55.8771C43.3063 58.0289 44.1279 58.6998 46.4192 58.4994L55.3251 57.7202C56.9988 57.5738 57.2525 57.4913 57.1532 56.3557ZM68.4005 51.517C68.1338 48.4686 66.2072 46.8705 63.1987 47.1337C60.1902 47.3969 58.5703 49.3053 58.837 52.3537C59.1072 55.4419 61.2064 57.4064 64.0755 57.1554C66.9445 56.9044 68.6707 54.6052 68.4005 51.517ZM66.0694 51.7209C66.2228 53.4742 65.5419 55.0998 63.9081 55.2427C62.2943 55.3839 61.3414 53.9013 61.1881 52.148C61.0364 50.4146 61.6274 49.1382 63.3608 48.9866C65.0942 48.8349 65.9178 49.9875 66.0694 51.7209ZM78.1336 55.9255C78.9505 55.854 79.8227 55.4966 79.7634 54.8192L79.7181 54.3012L79.5388 54.3169C78.9012 54.3727 78.3934 54.0758 77.856 53.4402L76.0539 51.4296C77.6359 50.0063 76.9493 47.4364 78.9217 47.2638L79.101 47.2481L79.0627 46.8098C78.9982 46.0726 78.3527 45.8079 77.5956 45.8741C74.607 46.1356 76.0611 50.3649 73.73 50.5689L72.6143 50.6665L72.2465 46.4625C70.2939 46.6334 70.015 46.6578 70.1179 47.8333L70.8639 56.3607L73.0954 56.1655L72.7659 52.3999L73.6426 52.3232L74.0012 52.2918L75.8529 54.6393C76.6513 55.7339 77.0578 56.0196 78.1336 55.9255ZM89.9782 49.6292C89.7115 46.5808 87.7849 44.9827 84.7764 45.2459C81.7679 45.5091 80.1481 47.4175 80.4148 50.4659C80.685 53.5541 82.7842 55.5186 85.6532 55.2676C88.5222 55.0166 90.2484 52.7174 89.9782 49.6292ZM87.6471 49.8331C87.8005 51.5864 87.1196 53.212 85.4859 53.3549C83.872 53.4961 82.9192 52.0135 82.7658 50.2602C82.6141 48.5268 83.2051 47.2504 84.9385 47.0988C86.6719 46.9471 87.4955 48.0997 87.6471 49.8331ZM100.78 52.6191L100.288 47.0006C100.1 44.8488 99.2784 44.1779 97.007 44.3766L92.7433 44.7496C92.0261 44.8124 92.0532 45.3521 92.1735 46.7268L93.09 46.6466L92.7487 51.6956C92.7136 52.4415 92.4167 52.9493 91.6995 53.012C91.4405 53.0347 91.2395 53.0322 90.9934 52.9734L91.0509 53.6309C91.1207 54.4279 91.8494 54.7255 92.7061 54.6505C94.0609 54.532 94.9294 53.673 94.9752 51.9023L95.1023 46.4706L96.736 46.3276C97.6127 46.2509 98.0296 46.6561 98.1115 47.5926L98.6728 54.0081C100.625 53.8372 100.884 53.8146 100.78 52.6191ZM102.54 50.8389C102.664 52.2535 103.673 53.691 105.686 53.515C107.18 53.3842 108.216 52.611 108.874 51.4091L109.122 53.0939C110.756 52.9509 111.493 52.8864 111.324 51.8773L110.545 46.8662C110.018 43.5997 107.957 43.2178 106.203 43.3712C104.829 43.4915 102.882 44.1838 102.983 45.3394L103.04 45.9969C103.771 45.6318 104.546 45.3031 105.422 45.2264C106.857 45.1009 108.016 45.5014 108.266 47.2061L108.271 47.2659L105.823 47.741C103.355 48.2179 102.41 49.3446 102.54 50.8389ZM105.042 50.5197C104.983 49.8423 105.441 49.3404 106.247 49.1494L108.434 48.677C108.48 50.1185 107.816 51.7024 106.481 51.8192C105.604 51.8959 105.112 51.3166 105.042 50.5197ZM122.962 54.8744C123.408 54.0122 123.777 52.2534 123.946 50.7529L123.924 50.4939L122.338 50.2713L121.887 45.111C121.699 42.9592 120.877 42.2882 118.586 42.4887L114.461 42.8495C113.764 42.9105 113.771 43.452 113.892 44.8267L114.848 44.743L114.072 51.0146L112.37 51.5249L112.783 56.2468C114.197 56.1231 114.592 56.0483 114.691 55.3371L115.064 52.4937L121.261 51.9516C121.215 53.0397 120.992 54.3843 120.76 55.4084C121.373 55.5354 121.781 55.6001 122.079 55.574C122.538 55.5339 122.738 55.2956 122.962 54.8744ZM120.074 50.0879L116.428 50.4069L116.88 44.5652L118.315 44.4397C119.211 44.3613 119.608 44.7682 119.69 45.7047L120.074 50.0879ZM128.633 50.0016C128.551 49.0652 128.026 48.5691 126.97 48.6615C125.854 48.7591 125.463 49.3354 125.545 50.2718C125.628 51.2282 126.112 51.7078 127.228 51.6102C128.284 51.5178 128.716 50.958 128.633 50.0016ZM130.551 40.7191C130.389 38.8662 128.802 38.1619 127.108 38.31C125.395 38.4599 123.85 39.619 124.282 40.4244L124.571 40.9813C125.081 40.6154 125.64 40.3457 126.297 40.2882C127.074 40.2202 127.841 40.4944 127.911 41.2914C128.054 42.9252 124.989 43.9161 125.149 45.7491C125.241 46.8051 125.985 47.5029 127.141 47.4018C127.878 47.3373 128.37 46.9931 128.319 46.4153L128.291 46.0965C127.893 46.1314 127.52 46.0034 127.48 45.5451C127.381 44.4095 130.783 43.369 130.551 40.7191Z" fill="white"/>
<rect y="14.8242" width="165" height="34" rx="17" transform="rotate(-5 0 14.8242)" fill="#6F2F13"/>
<path d="M26.4431 34.4743L25.4582 23.2173C24.7079 22.9015 23.9532 22.7668 23.1311 22.7785L17.4751 32.7092L16.6646 23.4446C14.6722 23.6189 14.3335 23.6486 14.4381 24.844L15.4264 36.1408C16.1768 36.4566 16.9513 36.5897 17.7535 36.5797L23.4078 26.629L24.2166 35.8737C26.2289 35.6977 26.5477 35.6698 26.4431 34.4743ZM35.1638 32.1454C35.0696 31.0695 34.3728 30.4479 33.0698 30.2407C34.3014 29.631 35.0234 28.7046 34.931 27.6486C34.7811 25.9351 33.223 25.1078 31.1709 25.2873C29.1386 25.4651 27.6647 26.5176 27.7902 27.9521C27.8547 28.6893 28.495 28.8943 29.1326 28.8385L29.6506 28.7932L29.6245 28.4943C29.5652 27.8169 30.0907 27.1686 31.0869 27.0815C31.8839 27.0117 32.5944 27.331 32.6641 28.128C32.7443 29.0445 31.6662 29.8013 30.152 29.9338C30.0058 30.3281 29.9965 30.9111 30.0999 31.4039C31.9329 31.2436 32.8417 31.3046 32.9184 32.1813C32.9794 32.8786 32.1463 33.4534 31.0106 33.5527C30.1539 33.6277 29.3828 33.5345 28.6576 33.2768L28.7151 33.9343C28.8197 35.1297 29.9955 35.4886 31.5894 35.3491C33.4423 35.187 35.3259 33.9983 35.1638 32.1454ZM50.3065 32.3866L49.5622 23.8791L47.3506 24.0725L47.5458 26.304C47.7202 28.2964 46.7254 29.5479 45.4503 29.6594C44.1553 29.7727 43.5899 28.8184 43.4505 27.2245L43.1995 24.3554C41.2469 24.5262 40.968 24.5506 41.0708 25.7262L41.3306 28.6948C41.5049 30.6872 42.7504 31.8431 44.6232 31.6792C45.978 31.5607 47.0995 30.8402 47.8265 29.5118L48.1995 33.7755C50.1521 33.6047 50.4111 33.582 50.3065 32.3866ZM60.5194 30.4892C59.7667 30.8361 58.9855 31.0852 58.1287 31.1601C56.1563 31.3327 55.0107 30.6299 54.536 29.1055L59.4373 28.6766C60.2342 28.6069 61.0267 28.2565 60.9343 27.2006C60.699 24.5108 58.988 22.8536 56.2784 23.0907C53.4691 23.3365 51.7489 25.4745 51.986 28.1842C52.2963 31.7306 54.4655 33.3477 57.3146 33.0985C58.9284 32.9573 60.6832 32.3621 60.5786 31.1666L60.5194 30.4892ZM56.365 24.7695C57.5406 24.6667 58.402 25.3342 58.5153 26.6292C58.5362 26.8683 58.4264 27.2192 58.008 27.2558L54.3021 27.58C54.2476 26.0389 54.8309 24.9038 56.365 24.7695ZM70.0405 24.0148C69.9185 22.6201 69.8732 22.1021 69.0364 22.1753L64.693 22.5553C62.7404 22.7261 62.4615 22.7505 62.5643 23.926L63.3034 32.3738L65.5349 32.1785L64.8603 24.468L70.0405 24.0148ZM80.6277 25.7988C80.361 22.7505 78.4344 21.1523 75.4259 21.4155C72.4174 21.6787 70.7975 23.5872 71.0642 26.6355C71.3344 29.7237 73.4336 31.6882 76.3027 31.4372C79.1717 31.1862 80.8979 28.887 80.6277 25.7988ZM78.2966 26.0028C78.45 27.7561 77.7691 29.3816 76.1353 29.5245C74.5215 29.6657 73.5686 28.1831 73.4153 26.4298C73.2636 24.6965 73.8546 23.4201 75.588 23.2684C77.3214 23.1168 78.145 24.2694 78.2966 26.0028ZM96.8589 32.5097C97.3054 31.6475 97.6736 29.8887 97.8434 28.3882L97.8208 28.1292L96.2353 27.9066L95.7839 22.7463C95.5956 20.5945 94.774 19.9235 92.4828 20.124L88.3585 20.4848C87.6612 20.5458 87.6684 21.0873 87.7887 22.462L88.745 22.3783L87.9687 28.6499L86.2667 29.1602L86.6798 33.8821C88.0944 33.7584 88.4894 33.6836 88.5877 32.9724L88.9613 30.129L95.1577 29.5869C95.1123 30.675 94.8887 32.0196 94.657 33.0437C95.2705 33.1707 95.6776 33.2354 95.9765 33.2093C96.4348 33.1692 96.6347 32.9309 96.8589 32.5097ZM93.9707 27.7232L90.3247 28.0422L90.7772 22.2005L92.2118 22.075C93.1083 21.9966 93.5053 22.4035 93.5872 23.34L93.9707 27.7232ZM106.71 26.4481C105.957 26.795 105.176 27.044 104.319 27.119C102.347 27.2915 101.201 26.5887 100.727 25.0643L105.628 24.6355C106.425 24.5658 107.217 24.2154 107.125 23.1594C106.89 20.4697 105.179 18.8125 102.469 19.0495C99.6599 19.2953 97.9397 21.4334 98.1767 24.143C98.487 27.6895 100.656 29.3066 103.505 29.0573C105.119 28.9161 106.874 28.3209 106.769 27.1255L106.71 26.4481ZM102.556 20.7284C103.731 20.6255 104.593 21.293 104.706 22.588C104.727 22.8271 104.617 23.178 104.199 23.2146L100.493 23.5389C100.438 21.9977 101.022 20.8626 102.556 20.7284ZM118.124 26.4533L117.633 20.8347C117.444 18.683 116.623 18.012 114.351 18.2107L110.088 18.5838C109.37 18.6465 109.398 19.1862 109.518 20.561L110.434 20.4808L110.093 25.5297C110.058 26.2756 109.761 26.7834 109.044 26.8462C108.785 26.8688 108.584 26.8664 108.338 26.8076L108.395 27.4651C108.465 28.262 109.194 28.5596 110.05 28.4847C111.405 28.3662 112.274 27.5072 112.32 25.7365L112.447 20.3047L114.08 20.1618C114.957 20.0851 115.374 20.4903 115.456 21.4267L116.017 27.8422C117.97 27.6714 118.229 27.6487 118.124 26.4533ZM119.885 24.6731C120.009 26.0877 121.018 27.5252 123.03 27.3491C124.524 27.2184 125.561 26.4451 126.219 25.2432L126.466 26.928C128.1 26.7851 128.837 26.7206 128.669 25.7114L127.889 20.7003C127.362 17.4338 125.301 17.052 123.548 17.2054C122.173 17.3257 120.226 18.018 120.327 19.1736L120.385 19.8311C121.116 19.466 121.89 19.1372 122.767 19.0605C124.201 18.935 125.36 19.3355 125.61 21.0403L125.615 21.1L123.167 21.5752C120.699 22.0521 119.754 23.1788 119.885 24.6731ZM122.386 24.3538C122.327 23.6764 122.785 23.1746 123.592 22.9836L125.779 22.5111C125.825 23.9526 125.16 25.5366 123.825 25.6534C122.949 25.7301 122.456 25.1508 122.386 24.3538ZM133.226 26.2564L132.9 22.5306L134.932 22.3528C135.552 24.6274 137.248 26.1052 139.619 25.8978C142.408 25.6538 143.984 23.2472 143.721 20.2387C143.454 17.1904 141.571 15.6286 138.782 15.8726C136.112 16.1062 134.592 17.785 134.654 20.5502L132.741 20.7175L132.377 16.5534C130.424 16.7243 130.145 16.7487 130.248 17.9242L130.994 26.4516L133.226 26.2564ZM141.31 20.4496C141.464 22.2029 140.886 23.8596 139.431 23.9869C137.957 24.1158 137.12 22.5829 136.967 20.8296C136.81 19.0365 137.37 17.8632 138.884 17.7308C140.398 17.5983 141.153 18.6565 141.31 20.4496ZM150.541 24.7415L149.871 17.0907L153.199 16.7996C153.075 15.385 153.006 14.8289 152.269 14.8934L144.28 15.5924L144.452 17.5648L147.64 17.2859L148.309 24.9367L150.541 24.7415Z" fill="white"/>
</svg>
