<svg width="123" height="70" viewBox="0 0 123 70" fill="none" xmlns="http://www.w3.org/2000/svg">
<rect x="27" y="33.0229" width="93" height="34" rx="17" transform="rotate(-5 27 33.0229)" fill="#B4E4FB"/>
<path d="M53.2643 52.8092L52.4973 44.0427C51.6423 44.1375 50.5388 44.3746 49.7386 44.8662C49.3643 46.3244 48.4465 48.9142 47.6904 50.8274C46.4982 48.904 45.233 46.6055 44.468 44.7451C43.5948 44.8617 42.4965 45.1585 41.7362 45.6467L42.5328 54.7519L44.565 54.5741L44.0072 48.1984C44.8866 49.9886 45.9271 51.7848 46.912 53.4051C47.5877 53.3259 48.2963 53.1635 48.8332 52.8756C49.5816 51.1036 50.2157 49.4019 50.7796 47.5859L51.3461 54.0611C53.0596 53.9112 53.3584 53.8851 53.2643 52.8092ZM64.5073 47.7701C64.2406 44.7218 62.3139 43.1236 59.3054 43.3868C56.2969 43.65 54.6771 45.5584 54.9438 48.6068C55.214 51.695 57.3132 53.6595 60.1822 53.4085C63.0513 53.1575 64.7774 50.8583 64.5073 47.7701ZM62.1762 47.9741C62.3296 49.7274 61.6486 51.3529 60.0149 51.4958C58.401 51.637 57.4482 50.1544 57.2948 48.4011C57.1432 46.6677 57.7342 45.3914 59.4675 45.2397C61.2009 45.0881 62.0245 46.2407 62.1762 47.9741ZM75.3088 50.7601L74.8172 45.1415C74.629 42.9898 73.8074 42.3188 71.5361 42.5175L67.2723 42.8905C66.5551 42.9533 66.5822 43.493 66.7025 44.8677L67.619 44.7876L67.2777 49.8365C67.2426 50.5824 66.9457 51.0902 66.2285 51.153C65.9695 51.1756 65.7685 51.1731 65.5224 51.1144L65.58 51.7718C65.6497 52.5688 66.3784 52.8664 67.2351 52.7915C68.5899 52.6729 69.4584 51.814 69.5042 50.0432L69.6313 44.6115L71.2651 44.4686C72.1417 44.3919 72.5586 44.7971 72.6406 45.7335L73.2018 52.149C75.1544 51.9782 75.4134 51.9555 75.3088 50.7601ZM86.552 45.8414C86.2853 42.7931 84.3586 41.1949 81.3501 41.4581C78.3416 41.7213 76.7218 43.6298 76.9885 46.6781C77.2587 49.7663 79.3579 51.7309 82.2269 51.4799C85.096 51.2288 86.8221 48.9297 86.552 45.8414ZM84.2209 46.0454C84.3743 47.7987 83.6933 49.4242 82.0596 49.5672C80.4457 49.7084 79.4929 48.2258 79.3395 46.4725C79.1879 44.7391 79.7789 43.4627 81.5122 43.3111C83.2456 43.1594 84.0692 44.312 84.2209 46.0454ZM96.2851 50.2499C97.102 50.1785 97.9741 49.8211 97.9149 49.1437L97.8696 48.6256L97.6902 48.6413C97.0527 48.6971 96.5449 48.4002 96.0074 47.7647L94.2053 45.7541C95.7873 44.3308 95.1007 41.7608 97.0732 41.5883L97.2525 41.5726L97.2141 41.1343C97.1497 40.3971 96.5041 40.1323 95.747 40.1986C92.7584 40.46 94.2126 44.6894 91.8815 44.8933L90.7657 44.991L90.3979 40.787C88.4454 40.9578 88.1665 40.9822 88.2693 42.1578L89.0154 50.6852L91.2468 50.4899L90.9174 46.7243L91.794 46.6476L92.1527 46.6163L94.0043 48.9638C94.8028 50.0584 95.2092 50.3441 96.2851 50.2499ZM108.13 43.9536C107.863 40.9053 105.936 39.3071 102.928 39.5703C99.9194 39.8335 98.2995 41.742 98.5662 44.7903C98.8364 47.8785 100.936 49.8431 103.805 49.592C106.674 49.341 108.4 47.0418 108.13 43.9536ZM105.799 44.1576C105.952 45.9109 105.271 47.5364 103.637 47.6794C102.023 47.8205 101.071 46.3379 100.917 44.5846C100.766 42.8513 101.357 41.5749 103.09 41.4233C104.823 41.2716 105.647 42.4242 105.799 44.1576Z" fill="#003595"/>
<rect y="10.8242" width="61" height="34" rx="17" transform="rotate(-5 0 10.8242)" fill="#B4E4FB"/>
<path d="M26.5289 30.4668L25.7846 21.9593C25.5771 19.5884 24.6671 18.8248 22.1966 19.0409L16.9566 19.4994C14.9443 19.6754 14.5856 19.7068 14.692 20.9222L15.7082 32.5378L18.0791 32.3304L17.1448 21.6512L21.8867 21.2363C22.9028 21.1474 23.3578 21.5292 23.445 22.5254L24.2625 31.8697C26.3147 31.6902 26.6335 31.6623 26.5289 30.4668ZM31.7651 34.4456L31.3799 30.0424C32.1158 30.8815 33.1486 31.2127 34.3042 31.1116C36.9541 30.8798 38.5674 28.209 38.3112 25.2802C38.0776 22.6104 36.6351 20.8093 34.1447 21.0272C32.5707 21.1649 31.4216 22.0283 30.8012 23.4277L30.6286 21.4552C28.676 21.6261 28.3971 21.6505 28.5 22.826L29.5336 34.6408L31.7651 34.4456ZM35.9654 25.5457C36.1153 27.2591 35.3721 29.0909 33.6188 29.2443C32.2441 29.3645 31.3918 28.114 31.2873 26.9186C31.0973 24.7469 31.9557 23.0858 33.5696 22.9446C35.1236 22.8086 35.8382 24.0912 35.9654 25.5457ZM49.2554 24.5436C48.9887 21.4952 47.062 19.897 44.0535 20.1602C41.045 20.4235 39.4252 22.3319 39.6919 25.3802C39.9621 28.4685 42.0613 30.433 44.9303 30.182C47.7994 29.931 49.5255 27.6318 49.2554 24.5436ZM46.9243 24.7475C47.0777 26.5008 46.3967 28.1263 44.763 28.2693C43.1491 28.4105 42.1963 26.9279 42.0429 25.1746C41.8913 23.4412 42.4823 22.1648 44.2156 22.0132C45.949 21.8615 46.7726 23.0141 46.9243 24.7475Z" fill="#003595"/>
</svg>
