<svg width="175" height="73" viewBox="0 0 175 73" fill="none" xmlns="http://www.w3.org/2000/svg">
<rect x="52" y="34.4756" width="120" height="34" rx="17" transform="rotate(-5 52 34.4756)" fill="#E0303B"/>
<path d="M74.7188 55.7766C75.5357 55.7051 76.4079 55.3477 76.3486 54.6703L76.3033 54.1523L76.124 54.168C75.4864 54.2238 74.9786 53.9269 74.4412 53.2913L72.6391 51.2807C74.221 49.8574 73.5345 47.2875 75.5069 47.1149L75.6862 47.0992L75.6479 46.6609C75.5834 45.9237 74.9379 45.659 74.1807 45.7252C71.1922 45.9867 72.6463 50.2161 70.3152 50.42L69.1995 50.5176L68.8317 46.3137C66.8791 46.4845 66.6002 46.5089 66.703 47.6844L67.4491 56.2118L69.6806 56.0166L69.3511 52.251L70.2278 52.1743L70.5864 52.1429L72.4381 54.4905C73.2365 55.585 73.6429 55.8707 74.7188 55.7766ZM87.0333 53.3742L86.5418 47.7556C86.3535 45.6038 85.5319 44.9329 83.2606 45.1316L78.9969 45.5046C78.2796 45.5674 78.3068 46.1071 78.427 47.4818L79.3435 47.4016L79.0023 52.4506C78.9672 53.1965 78.6703 53.7043 77.953 53.7671C77.694 53.7897 77.493 53.7872 77.247 53.7284L77.3045 54.3859C77.3742 55.1829 78.1029 55.4805 78.9597 55.4056C80.3145 55.287 81.1829 54.4281 81.2288 52.6573L81.3558 47.2256L82.9896 47.0827C83.8663 47.006 84.2832 47.4112 84.3651 48.3476L84.9264 54.7631C86.8789 54.5923 87.1379 54.5696 87.0333 53.3742ZM97.6593 43.8719L95.2486 44.0828L93.5995 51.3943C92.3951 49.3315 91.1723 46.8285 90.3074 44.5151L87.5978 44.7522C88.9491 47.806 90.6747 51.0078 92.7537 54.1184C92.6053 55.1754 92.0078 55.6894 91.0714 55.7713C90.7526 55.7992 90.3905 55.7908 90.0431 55.7208L90.1093 56.4779C90.1912 57.4143 91.1157 57.6546 92.0322 57.5745C93.7257 57.4263 94.8885 56.2605 95.0293 53.7387L97.6785 44.091L97.6593 43.8719ZM107.953 48.4722C107.716 45.7626 105.72 44.7527 103.322 44.8822C102.075 44.8508 100.962 44.7474 100.902 44.07C100.819 43.1136 103.798 42.2908 107.026 42.0084C106.906 40.6337 106.815 40.0594 106.058 40.1256C102.93 40.3993 98.3126 41.5461 98.5322 44.0565C98.6298 45.1722 99.5804 45.7114 100.766 45.9491C99.2691 46.7425 98.756 47.992 98.8937 49.566C99.1186 52.1361 101.381 53.4439 103.672 53.2435C106.083 53.0326 108.204 51.3413 107.953 48.4722ZM105.582 48.6797C105.718 50.2337 104.885 51.2703 103.65 51.3783C102.395 51.4882 101.394 50.612 101.258 49.0579C101.136 47.6633 101.797 46.7221 103.231 46.5966C104.646 46.4728 105.46 47.285 105.582 48.6797ZM112.583 52.2631L112.257 48.5374L116.68 48.1504L117.013 51.9558C118.966 51.785 119.225 51.7624 119.12 50.5669L118.376 42.0594L116.164 42.2529L116.522 46.3373L112.099 46.7243L111.734 42.5602C109.782 42.731 109.503 42.7554 109.606 43.9309L110.352 52.4584L112.583 52.2631ZM130.662 49.5571L129.953 41.4481C129.327 41.1816 128.674 41.0581 128.013 41.0757L123.595 47.9469L123.037 41.5713C121.145 41.7369 120.866 41.7613 120.968 42.9368L121.687 51.1454C122.292 51.4137 122.964 51.5155 123.625 51.4979L128.036 44.547L128.595 50.9426C130.488 50.777 130.767 50.7526 130.662 49.5571ZM140.503 50.0212C141.32 49.9498 142.192 49.5924 142.132 48.915L142.087 48.397L141.908 48.4126C141.27 48.4684 140.762 48.1716 140.225 47.536L138.423 45.5254C140.005 44.1021 139.318 41.5322 141.291 41.3596L141.47 41.3439L141.432 40.9056C141.367 40.1684 140.722 39.9036 139.965 39.9699C136.976 40.2314 138.43 44.4607 136.099 44.6647L134.983 44.7623L134.616 40.5583C132.663 40.7292 132.384 40.7536 132.487 41.9291L133.233 50.4565L135.464 50.2613L135.135 46.4956L136.012 46.419L136.37 46.3876L138.222 48.7351C139.02 49.8297 139.427 50.1154 140.503 50.0212ZM143.332 46.8225C143.455 48.2371 144.465 49.6746 146.477 49.4986C147.971 49.3678 149.008 48.5945 149.666 47.3926L149.913 49.0775C151.547 48.9345 152.284 48.87 152.116 47.8609L151.336 42.8498C150.809 39.5832 148.748 39.2014 146.995 39.3548C145.62 39.4751 143.673 40.1674 143.774 41.323L143.832 41.9805C144.563 41.6154 145.337 41.2867 146.214 41.21C147.648 41.0845 148.807 41.485 149.057 43.1897L149.062 43.2495L146.614 43.7246C144.146 44.2015 143.201 45.3282 143.332 46.8225ZM145.833 46.5032C145.774 45.8258 146.232 45.324 147.039 45.133L149.226 44.6606C149.272 46.1021 148.607 47.686 147.272 47.8028C146.395 47.8795 145.903 47.3002 145.833 46.5032ZM157.555 47.0236C157.473 46.0872 156.948 45.5911 155.892 45.6834C154.777 45.7811 154.385 46.3574 154.467 47.2938C154.551 48.2501 155.035 48.7298 156.15 48.6322C157.206 48.5398 157.639 47.9799 157.555 47.0236ZM159.474 37.7411C159.312 35.8882 157.724 35.1838 156.031 35.332C154.317 35.4819 152.772 36.641 153.204 37.4464L153.494 38.0033C154.004 37.6374 154.562 37.3677 155.22 37.3102C155.997 37.2422 156.764 37.5164 156.834 38.3134C156.976 39.9471 153.911 40.9381 154.072 42.771C154.164 43.827 154.908 44.5249 156.063 44.4238C156.8 44.3593 157.292 44.0151 157.242 43.4373L157.214 43.1185C156.815 43.1534 156.443 43.0254 156.403 42.5671C156.303 41.4314 159.706 40.391 159.474 37.7411Z" fill="white"/>
<rect y="14.8242" width="124" height="34" rx="17" transform="rotate(-5 0 14.8242)" fill="#E0303B"/>
<path d="M24.4591 35.973C25.4154 35.8893 26.3135 35.369 26.2316 34.4326L26.1984 34.0541L25.8996 34.0802C25.1225 34.1482 24.5455 33.9778 23.898 33.2314L21.2646 30.2094C23.4744 28.3899 22.3445 24.6542 25.0342 24.4189L25.3132 24.3945L25.2801 24.0159C25.1946 23.0396 24.6183 22.6484 23.5225 22.7442C19.6772 23.0807 21.9413 28.765 18.594 29.0578L17.4185 29.1607L16.9165 23.4226C14.8843 23.6004 14.5456 23.63 14.6502 24.8254L15.6751 36.5407L18.0461 36.3333L17.5998 31.2327L18.596 31.1456L19.0343 31.1072L21.8742 34.6532C22.8442 35.8733 23.4429 36.0619 24.4591 35.973ZM27.404 32.7641C27.5278 34.1787 28.5369 35.6162 30.5492 35.4401C32.0435 35.3094 33.0801 34.5361 33.7378 33.3342L33.9856 35.019C35.6194 34.8761 36.3565 34.8116 36.188 33.8025L35.4082 28.7914C34.8815 25.5248 32.8204 25.143 31.0671 25.2964C29.6924 25.4167 27.7453 26.109 27.8464 27.2646L27.9039 27.9221C28.6349 27.557 29.4092 27.2283 30.2858 27.1516C31.7204 27.0261 32.8797 27.4265 33.1292 29.1313L33.1344 29.191L30.6865 29.6662C28.2187 30.1431 27.2733 31.2698 27.404 32.7641ZM29.9057 32.4448C29.8465 31.7674 30.3045 31.2656 31.1109 31.0746L33.298 30.6022C33.3438 32.0437 32.6794 33.6276 31.3445 33.7444C30.4678 33.8211 29.9754 33.2418 29.9057 32.4448ZM45.7831 34.1074C46.6 34.0359 47.4721 33.6785 47.4129 33.0011L47.3675 32.4831L47.1882 32.4988C46.5507 32.5545 46.0429 32.2577 45.5054 31.6221L43.7033 29.6115C45.2853 28.1882 44.5987 25.6183 46.5712 25.4457L46.7505 25.43L46.7121 24.9917C46.6476 24.2545 46.0021 23.9898 45.245 24.056C42.2564 24.3175 43.7106 28.5468 41.3795 28.7508L40.2637 28.8484L39.8959 24.6444C37.9434 24.8153 37.6644 24.8397 37.7673 26.0152L38.5133 34.5426L40.7448 34.3474L40.4154 30.5818L41.292 30.5051L41.6507 30.4737L43.5023 32.8212C44.3007 33.9158 44.7072 34.2015 45.7831 34.1074ZM56.4034 36.29L56.0182 31.8869C56.7541 32.7259 57.7869 33.0572 58.9425 32.9561C61.5924 32.7242 63.2057 30.0534 62.9495 27.1246C62.7159 24.4548 61.2735 22.6537 58.783 22.8716C57.209 23.0093 56.0599 23.8727 55.4395 25.2721L55.2669 23.2997C53.3144 23.4705 53.0354 23.4949 53.1383 24.6704L54.1719 36.4853L56.4034 36.29ZM60.6037 27.3901C60.7536 29.1035 60.0104 30.9353 58.2571 31.0887C56.8824 31.209 56.0302 29.9585 55.9256 28.763C55.7356 26.5913 56.5941 24.9302 58.2079 24.789C59.762 24.653 60.4765 25.9356 60.6037 27.3901ZM64.4111 29.5264C64.5349 30.941 65.544 32.3785 67.5563 32.2024C69.0506 32.0717 70.0871 31.2984 70.7449 30.0965L70.9927 31.7813C72.6264 31.6384 73.3636 31.5739 73.195 30.5648L72.4153 25.5537C71.8886 22.2871 69.8275 21.9053 68.0742 22.0587C66.6994 22.179 64.7524 22.8713 64.8535 24.0269L64.911 24.6844C65.642 24.3193 66.4163 23.9906 67.2929 23.9139C68.7274 23.7884 69.8867 24.1888 70.1363 25.8936L70.1415 25.9533L67.6936 26.4285C65.2258 26.9054 64.2804 28.0321 64.4111 29.5264ZM66.9128 29.2071C66.8535 28.5297 67.3115 28.0279 68.118 27.8369L70.3051 27.3645C70.3509 28.806 69.6864 30.3899 68.3515 30.5067C67.4749 30.5834 66.9825 30.0041 66.9128 29.2071ZM82.7702 28.5225C82.0592 28.8858 81.2761 29.1149 80.4593 29.1864C78.1282 29.3903 76.9554 28.1478 76.7672 25.996C76.626 24.3822 77.5123 23.0398 79.0066 22.9091C79.9231 22.8289 80.6969 23.1828 80.8015 24.3783L80.8364 24.7768L81.5138 24.7175C82.231 24.6547 82.7506 24.1676 82.6721 23.271C82.524 21.5775 80.8023 20.9451 78.9693 21.1055C76.1401 21.353 74.1634 23.3128 74.4161 26.2017C74.716 29.6286 76.7778 31.3957 79.7066 31.1394C81.2208 31.007 82.9393 30.4551 82.8242 29.1401L82.7702 28.5225ZM89.8722 30.0493L89.2028 22.3985L92.5301 22.1074C92.4063 20.6928 92.3376 20.1367 91.6004 20.2012L83.6109 20.9002L83.7835 22.8726L86.9713 22.5937L87.6407 30.2445L89.8722 30.0493ZM102.136 26.8483C101.383 27.1952 100.602 27.4442 99.7452 27.5192C97.7727 27.6917 96.6271 26.9889 96.1524 25.4645L101.054 25.0357C101.851 24.966 102.643 24.6156 102.551 23.5596C102.315 20.8699 100.604 19.2127 97.8948 19.4497C95.0855 19.6955 93.3653 21.8336 93.6024 24.5432C93.9127 28.0897 96.0819 29.7068 98.931 29.4575C100.545 29.3163 102.3 28.7211 102.195 27.5257L102.136 26.8483ZM97.9815 21.1286C99.157 21.0257 100.018 21.6932 100.132 22.9882C100.153 23.2273 100.043 23.5782 99.6244 23.6148L95.9186 23.9391C95.864 22.398 96.4473 21.2628 97.9815 21.1286ZM109.485 28.3334L108.815 20.6826L112.143 20.3915C112.019 18.9769 111.95 18.4208 111.213 18.4853L103.224 19.1843L103.396 21.1568L106.584 20.8779L107.253 28.5286L109.485 28.3334Z" fill="white"/>
</svg>
