<svg width="17" height="17" viewBox="0 0 17 17" fill="none" xmlns="http://www.w3.org/2000/svg">
<g clip-path="url(#clip0_1_574)">
<path d="M7.81083 0.0495605C8.17544 0.0495605 8.54036 0.0495605 8.90497 0.0495605C9.16684 0.084956 9.43028 0.112521 9.69058 0.157313C11.1769 0.412912 12.5079 1.01557 13.6274 2.02701C15.8129 4.00195 16.6949 6.46961 16.2646 9.37924C16.0315 10.9539 15.338 12.3334 14.2404 13.4889C12.3459 15.4832 10.0138 16.3064 7.2896 15.9803C5.9364 15.8184 4.70693 15.3047 3.61748 14.4834C1.92817 13.2098 0.878506 11.5321 0.494787 9.4469C0.442162 9.16154 0.411152 8.8718 0.370117 8.58425C0.370117 8.21965 0.370117 7.85473 0.370117 7.49012C0.380767 7.44564 0.394863 7.40179 0.401441 7.35669C0.450307 7.02779 0.480065 6.69514 0.548351 6.37063C0.856893 4.91095 1.5313 3.63891 2.55747 2.55763C3.76188 1.2884 5.22503 0.487775 6.94973 0.17642C7.23509 0.124737 7.52359 0.0912207 7.81083 0.0495605ZM14.6902 8.12724C14.7046 4.57297 11.8836 1.76671 8.40974 1.73883C4.90364 1.71064 2.08949 4.53789 2.05974 7.97094C2.02904 11.5305 4.86292 14.3434 8.34522 14.3669C11.8541 14.391 14.6517 11.5578 14.6899 8.12724H14.6902Z" fill="#003595"/>
<path d="M6.53818 8.04447C6.53818 7.23194 6.53724 6.41941 6.53849 5.60657C6.53912 5.24134 6.70576 5.01362 7.01086 4.9469C7.18753 4.90806 7.34133 4.96475 7.48041 5.06405C8.64472 5.89694 9.80966 6.7292 10.9699 7.56773C11.3351 7.83179 11.3348 8.27407 10.9693 8.53813C9.80904 9.37666 8.64409 10.2086 7.48009 11.0421C7.28244 11.1837 7.0685 11.2182 6.84891 11.1013C6.61586 10.9776 6.53881 10.7633 6.53881 10.5134C6.53849 9.69052 6.53881 8.86734 6.53881 8.04447H6.53818Z" fill="#003595"/>
</g>
<defs>
<clipPath id="clip0_1_574">
<rect width="16" height="16" fill="white" transform="translate(0.370117 0.0495605)"/>
</clipPath>
</defs>
</svg>
