<svg width="14" height="16" viewBox="0 0 14 16" fill="none" xmlns="http://www.w3.org/2000/svg">
<path d="M0.0898329 8.16347C-0.364825 6.87838 0.999139 5.88906 2.09758 5.13251L2.94142 4.63784C3.95015 4.01709 5.13346 3.42544 6.49136 2.86288C6.97632 2.64949 7.55828 2.40701 8.23723 2.13543C9.24596 1.72806 9.90551 1.46618 10.2159 1.34979C10.4487 1.25279 10.6912 1.1461 10.9433 1.0297C11.2149 0.932712 11.4186 0.855121 11.5544 0.796925C11.7096 0.738729 11.8163 0.69994 11.8745 0.680542C12.5146 1.01032 12.8347 1.51468 12.8347 2.19363C12.8929 2.77559 12.5437 3.39633 11.7872 4.05589C11.05 4.71544 10.1577 5.3265 9.11017 5.88906C8.74159 6.10244 8.11114 6.43222 7.21881 6.87838C6.46226 7.24696 5.987 7.48944 5.79301 7.60583C6.16158 8.1102 7.72317 9.28381 10.4778 11.1267C10.8075 11.3401 11.1761 11.5825 11.5835 11.8541C12.0103 12.1257 12.3303 12.3294 12.5437 12.4652L13.2748 13.1647C13.4688 15.3955 12.5437 15.8572 10.4778 15.4379C8.23723 14.9833 9.20717 15.6513 0.0898329 8.16347Z" fill="#103595"/>
</svg>
