<svg width="14" height="16" viewBox="0 0 14 16" fill="none" xmlns="http://www.w3.org/2000/svg">
<path d="M13.2102 8.16347C13.6649 6.87838 12.3009 5.88906 11.2025 5.13251L10.3586 4.63784C9.3499 4.01709 8.16659 3.42544 6.80869 2.86288C6.32372 2.64949 5.74177 2.40701 5.06282 2.13543C4.05409 1.72806 3.39454 1.46618 3.08416 1.34979C2.85138 1.25279 2.6089 1.1461 2.35671 1.0297C2.08513 0.932712 1.88145 0.855121 1.74566 0.796925C1.59047 0.738729 1.48378 0.69994 1.42558 0.680542C0.78543 1.01032 0.465353 1.51468 0.465353 2.19363C0.407157 2.77559 0.756332 3.39633 1.51288 4.05589C2.25002 4.71544 3.14236 5.3265 4.18988 5.88906C4.55845 6.10244 5.18891 6.43222 6.08124 6.87838C6.83779 7.24696 7.31305 7.48944 7.50704 7.60583C7.13847 8.1102 5.57688 9.28381 2.82228 11.1267C2.4925 11.3401 2.12393 11.5825 1.71656 11.8541C1.28979 12.1257 0.969716 12.3294 0.756332 12.4652L0.0252113 13.1647C-0.168774 15.3955 0.756326 15.8572 2.82229 15.4379C5.06282 14.9833 4.09288 15.6513 13.2102 8.16347Z" fill="#103595"/>
</svg>
