<svg width="40" height="40" viewBox="0 0 40 40" fill="none" xmlns="http://www.w3.org/2000/svg">
<circle cx="20" cy="20" r="20" fill="#103595"/>
<path d="M12.0988 20.2292C11.5988 18.816 13.0988 17.728 14.3068 16.896L15.2348 16.352C16.3441 15.6693 17.6455 15.0187 19.1388 14.4C19.6721 14.1653 20.3121 13.8987 21.0588 13.6C22.1681 13.152 22.8935 12.864 23.2348 12.736C23.4908 12.6293 23.7575 12.512 24.0348 12.384C24.3335 12.2773 24.5575 12.192 24.7068 12.128C24.8775 12.064 24.9948 12.0213 25.0588 12C25.7628 12.3627 26.1148 12.9173 26.1148 13.664C26.1788 14.304 25.7948 14.9867 24.9628 15.712C24.1521 16.4373 23.1708 17.1093 22.0188 17.728C21.6135 17.9627 20.9201 18.3253 19.9388 18.816C19.1068 19.2213 18.5841 19.488 18.3708 19.616C18.7761 20.1707 20.4935 21.4613 23.5228 23.488C23.8855 23.7227 24.2908 23.9893 24.7388 24.288C25.2081 24.5867 25.5601 24.8107 25.7948 24.96L26.5988 25.7292C26.8122 28.1826 25.7948 28.6903 23.5228 28.2292C21.0588 27.7292 22.1255 28.4639 12.0988 20.2292Z" fill="white"/>
</svg>
