<svg width="15" height="17" viewBox="0 0 15 17" fill="none" xmlns="http://www.w3.org/2000/svg">
<path d="M0.0987974 8.22925C-0.401205 6.81599 1.09879 5.728 2.30679 4.896L3.23479 4.35199C4.34413 3.66932 5.64546 3.01866 7.13879 2.39999C7.67212 2.16533 8.31212 1.89866 9.05879 1.59999C10.1681 1.15199 10.8935 0.863992 11.2348 0.735992C11.4908 0.629326 11.7575 0.511987 12.0348 0.383987C12.3335 0.277321 12.5575 0.191991 12.7068 0.127991C12.8775 0.0639906 12.9948 0.0213332 13.0588 -6.85292e-08C13.7628 0.362667 14.1148 0.917335 14.1148 1.664C14.1788 2.304 13.7948 2.98666 12.9628 3.71199C12.1521 4.43732 11.1708 5.10933 10.0188 5.728C9.61346 5.96266 8.92012 6.32533 7.93879 6.81599C7.10679 7.22133 6.58412 7.488 6.37079 7.616C6.77612 8.17066 8.49346 9.46132 11.5228 11.488C11.8855 11.7227 12.2908 11.9893 12.7388 12.288C13.2081 12.5867 13.5601 12.8107 13.7948 12.96L14.5988 13.7292C14.8122 16.1826 13.7948 16.6903 11.5228 16.2292C9.05879 15.7292 10.1255 16.4639 0.0987974 8.22925Z" fill="white"/>
</svg>
