<svg width="15" height="17" viewBox="0 0 15 17" fill="none" xmlns="http://www.w3.org/2000/svg">
<path d="M14.9012 8.22925C15.4012 6.81599 13.9012 5.728 12.6932 4.896L11.7652 4.35199C10.6558 3.66932 9.35451 3.01866 7.86118 2.39999C7.32785 2.16533 6.68784 1.89866 5.94118 1.59999C4.83185 1.15199 4.10651 0.863992 3.76518 0.735992C3.50918 0.629326 3.24251 0.511987 2.96518 0.383987C2.66651 0.277321 2.44251 0.191991 2.29318 0.127991C2.12251 0.0639906 2.00518 0.0213332 1.94118 -6.85292e-08C1.23718 0.362667 0.885178 0.917335 0.885178 1.664C0.821178 2.304 1.20518 2.98666 2.03718 3.71199C2.84785 4.43732 3.82918 5.10933 4.98118 5.728C5.38651 5.96266 6.07985 6.32533 7.06118 6.81599C7.89318 7.22133 8.41585 7.488 8.62918 7.616C8.22385 8.17066 6.50651 9.46132 3.47718 11.488C3.11451 11.7227 2.70918 11.9893 2.26118 12.288C1.79185 12.5867 1.43984 12.8107 1.20518 12.96L0.401139 13.7292C0.187806 16.1826 1.20517 16.6903 3.47719 16.2292C5.94118 15.7292 4.8745 16.4639 14.9012 8.22925Z" fill="white"/>
</svg>
