<svg width="40" height="40" viewBox="0 0 40 40" fill="none" xmlns="http://www.w3.org/2000/svg">
<circle cx="20" cy="20" r="20" transform="matrix(-1 0 0 1 40 0)" fill="#103595"/>
<path d="M27.9012 20.2292C28.4012 18.816 26.9012 17.728 25.6932 16.896L24.7652 16.352C23.6558 15.6693 22.3545 15.0187 20.8612 14.4C20.3278 14.1653 19.6878 13.8987 18.9412 13.6C17.8318 13.152 17.1065 12.864 16.7652 12.736C16.5092 12.6293 16.2425 12.512 15.9652 12.384C15.6665 12.2773 15.4425 12.192 15.2932 12.128C15.1225 12.064 15.0052 12.0213 14.9412 12C14.2372 12.3627 13.8852 12.9173 13.8852 13.664C13.8212 14.304 14.2052 14.9867 15.0372 15.712C15.8478 16.4373 16.8292 17.1093 17.9812 17.728C18.3865 17.9627 19.0798 18.3253 20.0612 18.816C20.8932 19.2213 21.4158 19.488 21.6292 19.616C21.2238 20.1707 19.5065 21.4613 16.4772 23.488C16.1145 23.7227 15.7092 23.9893 15.2612 24.288C14.7918 24.5867 14.4398 24.8107 14.2052 24.96L13.4011 25.7292C13.1878 28.1826 14.2052 28.6903 16.4772 28.2292C18.9412 27.7292 17.8745 28.4639 27.9012 20.2292Z" fill="white"/>
</svg>
