<svg width="38" height="38" viewBox="0 0 38 38" fill="none" xmlns="http://www.w3.org/2000/svg">
<circle cx="19" cy="19" r="18.4" stroke="#003595" stroke-width="1.2"/>
<path d="M28.0049 13.6791L24.6027 13.6791C24.4639 13.6791 24.3276 13.7205 24.2085 13.799C24.0893 13.8776 23.9917 13.9902 23.926 14.125C23.926 14.125 22.5691 16.8776 22.1332 17.8047C20.9607 20.2988 20.2014 19.5159 20.2014 18.3583L20.2014 14.3671C20.2014 14.0336 20.0811 13.7138 19.867 13.4779C19.6529 13.2421 19.3625 13.1096 19.0597 13.1096L16.5018 13.1096C16.1534 13.0811 15.8042 13.1511 15.4874 13.3131C15.1705 13.475 14.8965 13.7235 14.6913 14.035C14.6913 14.035 15.9902 13.8036 15.9902 15.7314C15.9902 16.2095 16.0126 17.5847 16.033 18.7381C16.0368 18.9081 15.9932 19.0752 15.908 19.2171C15.8229 19.3589 15.7003 19.4685 15.5568 19.5311C15.4133 19.5937 15.2558 19.6063 15.1056 19.5672C14.9553 19.5281 14.8196 19.4392 14.7168 19.3124C13.6697 17.7084 12.8025 15.971 12.1338 14.1378C12.0763 14.0007 11.9844 13.8846 11.8689 13.8032C11.7533 13.7219 11.6191 13.6788 11.482 13.6791C10.7441 13.6791 9.26769 13.6791 8.39088 13.6791C8.30585 13.6784 8.22196 13.7005 8.1464 13.7435C8.07084 13.7864 8.00588 13.849 7.9571 13.9257C7.90832 14.0024 7.87718 14.091 7.86634 14.1839C7.85551 14.2768 7.86531 14.3712 7.89491 14.459C8.83351 17.2949 12.8767 26.2068 17.4916 26.2068L19.434 26.2068C19.6375 26.2068 19.8327 26.1178 19.9766 25.9593C20.1205 25.8007 20.2014 25.5857 20.2014 25.3616L20.2014 24.0696C20.2014 23.9076 20.2444 23.749 20.3252 23.6136C20.406 23.4781 20.521 23.3717 20.6561 23.3073C20.7911 23.243 20.9403 23.2235 21.0852 23.2514C21.2302 23.2793 21.3645 23.3533 21.4718 23.4643L23.7967 25.8704C24.0055 26.0865 24.2812 26.2068 24.5677 26.2068L27.6208 26.2068C29.0932 26.2068 29.0932 25.0813 28.2904 24.2104C27.7254 23.5975 25.6866 21.2304 25.6866 21.2304C25.512 21.0311 25.4079 20.7697 25.393 20.4933C25.3782 20.2168 25.4536 19.9437 25.6056 19.7231C26.2646 18.7679 27.3425 17.2042 27.7996 16.5343C28.4245 15.6187 29.5553 13.6791 28.0049 13.6791Z" fill="#003595"/>
</svg>
